G04 #@! TF.FileFunction,Copper,L2,Bot,Signal*
%FSLAX46Y46*%
G04 Gerber Fmt 4.6, Leading zero omitted, Abs format (unit mm)*
G04 Created by KiCad (PCBNEW 4.0.7) date 10/02/17 15:55:06*
%MOMM*%
%LPD*%
G01*
G04 APERTURE LIST*
%ADD10C,0.100000*%
%ADD11R,1.700000X1.700000*%
%ADD12O,1.700000X1.700000*%
%ADD13C,0.250000*%
%ADD14C,0.500000*%
G04 APERTURE END LIST*
D10*
D11*
X-107236000Y26680000D03*
D12*
X-109776000Y26680000D03*
X-107236000Y24140000D03*
X-109776000Y24140000D03*
X-107236000Y21600000D03*
X-109776000Y21600000D03*
X-107236000Y19060000D03*
X-109776000Y19060000D03*
X-107236000Y16520000D03*
X-109776000Y16520000D03*
X-107236000Y13980000D03*
X-109776000Y13980000D03*
X-107236000Y11440000D03*
X-109776000Y11440000D03*
X-107236000Y8900000D03*
X-109776000Y8900000D03*
X-107236000Y6360000D03*
X-109776000Y6360000D03*
X-107236000Y3820000D03*
X-109776000Y3820000D03*
X-107236000Y1280000D03*
X-109776000Y1280000D03*
X-107236000Y-1260000D03*
X-109776000Y-1260000D03*
X-107236000Y-3800000D03*
X-109776000Y-3800000D03*
X-107236000Y-6340000D03*
X-109776000Y-6340000D03*
X-107236000Y-8880000D03*
X-109776000Y-8880000D03*
X-107236000Y-11420000D03*
X-109776000Y-11420000D03*
D11*
X-62436000Y24180000D03*
D12*
X-64976000Y24180000D03*
X-62436000Y21640000D03*
X-64976000Y21640000D03*
X-62436000Y19100000D03*
X-64976000Y19100000D03*
X-62436000Y16560000D03*
X-64976000Y16560000D03*
X-62436000Y14020000D03*
X-64976000Y14020000D03*
X-62436000Y11480000D03*
X-64976000Y11480000D03*
X-62436000Y8940000D03*
X-64976000Y8940000D03*
X-62436000Y6400000D03*
X-64976000Y6400000D03*
X-62436000Y3860000D03*
X-64976000Y3860000D03*
X-62436000Y1320000D03*
X-64976000Y1320000D03*
X-62436000Y-1220000D03*
X-64976000Y-1220000D03*
X-62436000Y-3760000D03*
X-64976000Y-3760000D03*
X-62436000Y-6300000D03*
X-64976000Y-6300000D03*
X-62436000Y-8840000D03*
X-64976000Y-8840000D03*
X-62436000Y-11380000D03*
X-64976000Y-11380000D03*
X-62436000Y-13920000D03*
X-64976000Y-13920000D03*
D11*
X-93726000Y44450000D03*
D12*
X-93726000Y41910000D03*
X-93726000Y39370000D03*
X-93726000Y36830000D03*
X-93726000Y34290000D03*
X-93726000Y31750000D03*
X-93726000Y29210000D03*
X-93726000Y26670000D03*
X-93726000Y24130000D03*
X-93726000Y21590000D03*
X-93726000Y19050000D03*
X-93726000Y16510000D03*
X-93726000Y13970000D03*
X-93726000Y11430000D03*
X-93726000Y8890000D03*
X-93726000Y6350000D03*
X-93726000Y3810000D03*
X-93726000Y1270000D03*
X-93726000Y-1270000D03*
X-93726000Y-3810000D03*
X-93726000Y-6350000D03*
X-93726000Y-8890000D03*
X-93726000Y-11430000D03*
X-93726000Y-13970000D03*
X-93726000Y-16510000D03*
X-93726000Y-19050000D03*
X-93726000Y-21590000D03*
X-93726000Y-24130000D03*
X-93726000Y-26670000D03*
X-93726000Y-29210000D03*
X-93726000Y-31750000D03*
X-93726000Y-34290000D03*
D11*
X-78486000Y44450000D03*
D12*
X-78486000Y41910000D03*
X-78486000Y39370000D03*
X-78486000Y36830000D03*
X-78486000Y34290000D03*
X-78486000Y31750000D03*
X-78486000Y29210000D03*
X-78486000Y26670000D03*
X-78486000Y24130000D03*
X-78486000Y21590000D03*
X-78486000Y19050000D03*
X-78486000Y16510000D03*
X-78486000Y13970000D03*
X-78486000Y11430000D03*
X-78486000Y8890000D03*
X-78486000Y6350000D03*
X-78486000Y3810000D03*
X-78486000Y1270000D03*
X-78486000Y-1270000D03*
X-78486000Y-3810000D03*
X-78486000Y-6350000D03*
X-78486000Y-8890000D03*
X-78486000Y-11430000D03*
X-78486000Y-13970000D03*
X-78486000Y-16510000D03*
X-78486000Y-19050000D03*
X-78486000Y-21590000D03*
X-78486000Y-24130000D03*
X-78486000Y-26670000D03*
X-78486000Y-29210000D03*
X-78486000Y-31750000D03*
X-78486000Y-34290000D03*
D13*
X-59944000Y24384000D02*
X-59182000Y25146000D01*
X-59944000Y24130000D02*
X-59944000Y24384000D01*
X-59182000Y23368000D02*
X-59944000Y24130000D01*
X-59182000Y25146000D02*
X-59182000Y23368000D01*
X-62436000Y24180000D02*
X-62436000Y28400000D01*
X-62436000Y28400000D02*
X-78486000Y44450000D01*
X-64976000Y24180000D02*
X-64976000Y28400000D01*
X-64976000Y28400000D02*
X-78486000Y41910000D01*
X-62436000Y21640000D02*
X-62788000Y21640000D01*
X-62788000Y21640000D02*
X-64008000Y22860000D01*
X-64008000Y22860000D02*
X-67310000Y22860000D01*
X-67310000Y22860000D02*
X-68072000Y23622000D01*
X-68072000Y23622000D02*
X-68072000Y28956000D01*
X-68072000Y28956000D02*
X-78486000Y39370000D01*
X-62436000Y21640000D02*
X-62436000Y22050000D01*
X-66802000Y21640000D02*
X-68630000Y21640000D01*
X-68630000Y21640000D02*
X-69596000Y22606000D01*
X-69596000Y22606000D02*
X-69596000Y27940000D01*
X-69596000Y27940000D02*
X-78486000Y36830000D01*
X-64976000Y21640000D02*
X-66802000Y21640000D01*
X-66802000Y21640000D02*
X-67106000Y21640000D01*
X-78486000Y36322000D02*
X-78486000Y36830000D01*
X-78486000Y34290000D02*
X-70866000Y26670000D01*
X-70866000Y26670000D02*
X-70866000Y22098000D01*
X-70866000Y22098000D02*
X-69088000Y20320000D01*
X-69088000Y20320000D02*
X-63656000Y20320000D01*
X-63656000Y20320000D02*
X-62436000Y19100000D01*
X-62436000Y19100000D02*
X-62534000Y19100000D01*
X-62436000Y19100000D02*
X-62534000Y19100000D01*
X-64976000Y19100000D02*
X-70562000Y19100000D01*
X-70562000Y19100000D02*
X-71782000Y20320000D01*
X-71782000Y20320000D02*
X-71782000Y25046000D01*
X-71782000Y25046000D02*
X-78486000Y31750000D01*
X-78486000Y31496000D02*
X-78486000Y31750000D01*
X-62436000Y16560000D02*
X-62534000Y16560000D01*
X-62534000Y16560000D02*
X-63754000Y17780000D01*
X-63754000Y17780000D02*
X-71374000Y17780000D01*
X-71374000Y17780000D02*
X-73406000Y19812000D01*
X-73406000Y19812000D02*
X-73406000Y24130000D01*
X-73406000Y24130000D02*
X-78486000Y29210000D01*
X-62436000Y16560000D02*
X-62436000Y16716000D01*
X-74422000Y19558000D02*
X-74422000Y19304000D01*
X-74422000Y19304000D02*
X-71678000Y16560000D01*
X-71678000Y16560000D02*
X-64976000Y16560000D01*
X-74422000Y19304000D02*
X-74422000Y19558000D01*
X-74422000Y19558000D02*
X-74422000Y22606000D01*
X-74422000Y22606000D02*
X-78486000Y26670000D01*
X-62436000Y14020000D02*
X-62534000Y14020000D01*
X-62534000Y14020000D02*
X-63754000Y15240000D01*
X-63754000Y15240000D02*
X-72136000Y15240000D01*
X-72136000Y15240000D02*
X-75438000Y18542000D01*
X-75438000Y18542000D02*
X-75438000Y21082000D01*
X-75438000Y21082000D02*
X-78486000Y24130000D01*
X-62436000Y14020000D02*
X-62436000Y14176000D01*
X-76708000Y18542000D02*
X-76708000Y18034000D01*
X-76708000Y18034000D02*
X-72694000Y14020000D01*
X-72694000Y14020000D02*
X-64976000Y14020000D01*
X-76708000Y18388000D02*
X-76708000Y18542000D01*
X-76708000Y18542000D02*
X-76708000Y19812000D01*
X-76708000Y19812000D02*
X-78486000Y21590000D01*
X-62436000Y11480000D02*
X-62436000Y11636000D01*
X-62436000Y11636000D02*
X-63500000Y12700000D01*
X-63500000Y12700000D02*
X-72898000Y12700000D01*
X-72898000Y12700000D02*
X-79248000Y19050000D01*
X-64976000Y11480000D02*
X-74118000Y11480000D01*
X-74118000Y11480000D02*
X-78486000Y15848000D01*
X-78486000Y15848000D02*
X-78486000Y16510000D01*
X-62436000Y8940000D02*
X-62436000Y9096000D01*
X-62436000Y9096000D02*
X-63500000Y10160000D01*
X-63500000Y10160000D02*
X-74676000Y10160000D01*
X-74676000Y10160000D02*
X-78486000Y13970000D01*
X-64976000Y8940000D02*
X-76404000Y8940000D01*
X-76404000Y8940000D02*
X-78486000Y11022000D01*
X-78486000Y11022000D02*
X-78486000Y11430000D01*
X-62436000Y6400000D02*
X-62534000Y6400000D01*
X-62534000Y6400000D02*
X-63754000Y7620000D01*
X-63754000Y7620000D02*
X-77216000Y7620000D01*
X-77216000Y7620000D02*
X-78486000Y8890000D01*
X-65026000Y6350000D02*
X-64976000Y6400000D01*
X-78486000Y6350000D02*
X-65026000Y6350000D01*
X-65026000Y6350000D02*
X-64976000Y6400000D01*
X-62436000Y3860000D02*
X-62534000Y3860000D01*
X-62534000Y3860000D02*
X-63754000Y5080000D01*
X-63754000Y5080000D02*
X-77216000Y5080000D01*
X-77216000Y5080000D02*
X-78486000Y3810000D01*
X-64976000Y3860000D02*
X-75896000Y3860000D01*
X-75896000Y3860000D02*
X-78486000Y1270000D01*
X-62436000Y1320000D02*
X-62534000Y1320000D01*
X-62534000Y1320000D02*
X-63754000Y2540000D01*
X-63754000Y2540000D02*
X-74676000Y2540000D01*
X-74676000Y2540000D02*
X-78486000Y-1270000D01*
X-64976000Y1320000D02*
X-73356000Y1320000D01*
X-73356000Y1320000D02*
X-78486000Y-3810000D01*
X-63500000Y0D02*
X-72644000Y0D01*
X-72644000Y0D02*
X-78486000Y-5842000D01*
X-78486000Y-5842000D02*
X-78486000Y-6350000D01*
X-62436000Y-1220000D02*
X-62436000Y-1064000D01*
X-62436000Y-1064000D02*
X-63500000Y0D01*
X-78486000Y-6096000D02*
X-78486000Y-6350000D01*
X-64976000Y-1220000D02*
X-71324000Y-1220000D01*
X-71324000Y-1220000D02*
X-78486000Y-8382000D01*
X-63500000Y-2540000D02*
X-70104000Y-2540000D01*
X-70104000Y-2540000D02*
X-78486000Y-10922000D01*
X-62436000Y-3760000D02*
X-62436000Y-3604000D01*
X-62436000Y-3604000D02*
X-63500000Y-2540000D01*
X-64976000Y-3760000D02*
X-68784000Y-3760000D01*
X-68784000Y-3760000D02*
X-78613000Y-13589000D01*
X-62436000Y-6300000D02*
X-62436000Y-6144000D01*
X-62436000Y-6144000D02*
X-63500000Y-5080000D01*
X-63500000Y-5080000D02*
X-67564000Y-5080000D01*
X-67564000Y-5080000D02*
X-78613000Y-16129000D01*
X-78486000Y-19050000D02*
X-78486000Y-18288000D01*
X-78486000Y-18288000D02*
X-66498000Y-6300000D01*
X-66498000Y-6300000D02*
X-64976000Y-6300000D01*
D14*
X-78486000Y-19050000D02*
X-78463400Y-19050000D01*
D13*
X-62436000Y-8840000D02*
X-62436000Y-8684000D01*
X-62436000Y-8684000D02*
X-63500000Y-7620000D01*
X-63500000Y-7620000D02*
X-66294000Y-7620000D01*
X-66294000Y-7620000D02*
X-75946000Y-17272000D01*
X-75946000Y-17272000D02*
X-75946000Y-19050000D01*
X-75946000Y-19050000D02*
X-78486000Y-21590000D01*
X-78486000Y-24130000D02*
X-76454000Y-24130000D01*
X-76454000Y-24130000D02*
X-74422000Y-22098000D01*
X-74422000Y-22098000D02*
X-74422000Y-17272000D01*
X-74422000Y-17272000D02*
X-65737000Y-8587000D01*
X-73152000Y-23114000D02*
X-73152000Y-24130000D01*
X-73152000Y-24130000D02*
X-75692000Y-26670000D01*
X-75692000Y-26670000D02*
X-78486000Y-26670000D01*
X-62436000Y-11380000D02*
X-62436000Y-11224000D01*
X-62436000Y-11224000D02*
X-63500000Y-10160000D01*
X-63500000Y-10160000D02*
X-65786000Y-10160000D01*
X-65786000Y-10160000D02*
X-73152000Y-17526000D01*
X-73152000Y-17526000D02*
X-73152000Y-23114000D01*
X-64976000Y-11380000D02*
X-65736000Y-11380000D01*
X-65736000Y-11380000D02*
X-71374000Y-17018000D01*
X-71374000Y-17018000D02*
X-71374000Y-24130000D01*
X-71374000Y-24130000D02*
X-76454000Y-29210000D01*
X-64976000Y-11380000D02*
X-65482000Y-11380000D01*
X-64976000Y-11380000D02*
X-65736000Y-11380000D01*
X-76454000Y-29210000D02*
X-78486000Y-29210000D01*
X-78486000Y-31750000D02*
X-77470000Y-31750000D01*
X-77470000Y-31750000D02*
X-70104000Y-24384000D01*
X-70104000Y-24384000D02*
X-70104000Y-17018000D01*
X-70104000Y-17018000D02*
X-68072000Y-14986000D01*
X-62436000Y-13920000D02*
X-62436000Y-13764000D01*
X-62436000Y-13764000D02*
X-63500000Y-12700000D01*
X-63500000Y-12700000D02*
X-65786000Y-12700000D01*
X-65786000Y-12700000D02*
X-68072000Y-14986000D01*
X-68072000Y-14986000D02*
X-68326000Y-15240000D01*
X-62436000Y-13920000D02*
X-62534000Y-13920000D01*
X-62436000Y-13920000D02*
X-62436000Y-13764000D01*
X-64976000Y-13920000D02*
X-65228000Y-13920000D01*
X-65228000Y-13920000D02*
X-68580000Y-17272000D01*
X-68580000Y-17272000D02*
X-68580000Y-25654000D01*
X-64976000Y-13920000D02*
X-65736000Y-13920000D01*
X-68580000Y-25654000D02*
X-77216000Y-34290000D01*
X-77216000Y-34290000D02*
X-78486000Y-34290000D01*
X-107236000Y26680000D02*
X-107236000Y30940000D01*
X-107236000Y30940000D02*
X-93726000Y44450000D01*
X-107236000Y26680000D02*
X-106670000Y26680000D01*
X-109776000Y26680000D02*
X-109776000Y26464000D01*
X-109776000Y26464000D02*
X-108649199Y25337199D01*
X-108649199Y25337199D02*
X-105980801Y25337199D01*
X-105980801Y25337199D02*
X-104902000Y26416000D01*
X-104902000Y26416000D02*
X-104902000Y30734000D01*
X-104902000Y30734000D02*
X-93726000Y41910000D01*
X-109776000Y26680000D02*
X-109776000Y26464000D01*
X-107236000Y24140000D02*
X-106416000Y24140000D01*
X-106416000Y24140000D02*
X-102362000Y28194000D01*
X-102362000Y28194000D02*
X-102362000Y30734000D01*
X-102362000Y30734000D02*
X-93726000Y39370000D01*
X-93726000Y39370000D02*
X-93980000Y39370000D01*
X-93726000Y39370000D02*
X-94234000Y39370000D01*
X-109776000Y24140000D02*
X-109738000Y24140000D01*
X-109738000Y24140000D02*
X-108458000Y22860000D01*
X-108458000Y22860000D02*
X-106680000Y22860000D01*
X-106680000Y22860000D02*
X-95504000Y34036000D01*
X-95504000Y34036000D02*
X-95504000Y35052000D01*
X-95504000Y35052000D02*
X-93726000Y36830000D01*
X-107236000Y21600000D02*
X-106416000Y21600000D01*
X-106416000Y21600000D02*
X-93726000Y34290000D01*
X-109776000Y21600000D02*
X-109776000Y21384000D01*
X-109776000Y21384000D02*
X-108712000Y20320000D01*
X-108712000Y20320000D02*
X-105156000Y20320000D01*
X-105156000Y20320000D02*
X-93726000Y31750000D01*
X-107236000Y19060000D02*
X-103876000Y19060000D01*
X-103876000Y19060000D02*
X-93726000Y29210000D01*
X-109776000Y19060000D02*
X-109738000Y19060000D01*
X-109738000Y19060000D02*
X-108458000Y17780000D01*
X-108458000Y17780000D02*
X-102616000Y17780000D01*
X-102616000Y17780000D02*
X-93726000Y26670000D01*
X-107236000Y16520000D02*
X-101336000Y16520000D01*
X-101336000Y16520000D02*
X-93726000Y24130000D01*
X-109776000Y16520000D02*
X-109738000Y16520000D01*
X-109738000Y16520000D02*
X-108458000Y15240000D01*
X-108458000Y15240000D02*
X-100076000Y15240000D01*
X-100076000Y15240000D02*
X-93726000Y21590000D01*
X-107236000Y13980000D02*
X-98796000Y13980000D01*
X-98796000Y13980000D02*
X-93726000Y19050000D01*
X-109776000Y13980000D02*
X-109738000Y13980000D01*
X-109738000Y13980000D02*
X-108458000Y12700000D01*
X-108458000Y12700000D02*
X-97536000Y12700000D01*
X-97536000Y12700000D02*
X-93726000Y16510000D01*
X-107236000Y11440000D02*
X-96256000Y11440000D01*
X-96256000Y11440000D02*
X-93726000Y13970000D01*
X-109776000Y11440000D02*
X-109738000Y11440000D01*
X-109738000Y11440000D02*
X-108458000Y10160000D01*
X-108458000Y10160000D02*
X-94996000Y10160000D01*
X-94996000Y10160000D02*
X-93726000Y11430000D01*
X-107236000Y8900000D02*
X-93736000Y8900000D01*
X-93736000Y8900000D02*
X-93726000Y8890000D01*
X-109776000Y8900000D02*
X-109738000Y8900000D01*
X-109738000Y8900000D02*
X-108458000Y7620000D01*
X-108458000Y7620000D02*
X-94996000Y7620000D01*
X-94996000Y7620000D02*
X-93726000Y6350000D01*
X-107236000Y6360000D02*
X-96276000Y6360000D01*
X-96276000Y6360000D02*
X-93726000Y3810000D01*
X-109776000Y6360000D02*
X-109776000Y6144000D01*
X-109776000Y6144000D02*
X-108712000Y5080000D01*
X-108712000Y5080000D02*
X-97536000Y5080000D01*
X-97536000Y5080000D02*
X-93726000Y1270000D01*
X-107236000Y3820000D02*
X-98816000Y3820000D01*
X-98816000Y3820000D02*
X-93726000Y-1270000D01*
X-109776000Y3820000D02*
X-109738000Y3820000D01*
X-109738000Y3820000D02*
X-108458000Y2540000D01*
X-108458000Y2540000D02*
X-100076000Y2540000D01*
X-100076000Y2540000D02*
X-93726000Y-3810000D01*
X-107236000Y1280000D02*
X-101356000Y1280000D01*
X-101356000Y1280000D02*
X-93726000Y-6350000D01*
X-109776000Y1280000D02*
X-109738000Y1280000D01*
X-109738000Y1280000D02*
X-108458000Y0D01*
X-108458000Y0D02*
X-102616000Y0D01*
X-102616000Y0D02*
X-93726000Y-8890000D01*
X-107236000Y-1260000D02*
X-103896000Y-1260000D01*
X-103896000Y-1260000D02*
X-93726000Y-11430000D01*
X-109776000Y-1260000D02*
X-109738000Y-1260000D01*
X-109738000Y-1260000D02*
X-108458000Y-2540000D01*
X-108458000Y-2540000D02*
X-105156000Y-2540000D01*
X-105156000Y-2540000D02*
X-93726000Y-13970000D01*
X-107236000Y-3800000D02*
X-105674000Y-3800000D01*
X-105674000Y-3800000D02*
X-95250000Y-14224000D01*
X-95250000Y-14224000D02*
X-95250000Y-14986000D01*
X-95250000Y-14986000D02*
X-93726000Y-16510000D01*
X-107236000Y-3800000D02*
X-106436000Y-3800000D01*
X-109776000Y-3800000D02*
X-109738000Y-3800000D01*
X-109738000Y-3800000D02*
X-108458000Y-5080000D01*
X-108458000Y-5080000D02*
X-106172000Y-5080000D01*
X-106172000Y-5080000D02*
X-96012000Y-15240000D01*
X-96012000Y-15240000D02*
X-96012000Y-16764000D01*
X-96012000Y-16764000D02*
X-93726000Y-19050000D01*
X-107236000Y-6340000D02*
X-106182000Y-6340000D01*
X-106182000Y-6340000D02*
X-97028000Y-15494000D01*
X-97028000Y-15494000D02*
X-97028000Y-18288000D01*
X-97028000Y-18288000D02*
X-93726000Y-21590000D01*
X-109776000Y-6340000D02*
X-109738000Y-6340000D01*
X-109738000Y-6340000D02*
X-108458000Y-7620000D01*
X-108458000Y-7620000D02*
X-106172000Y-7620000D01*
X-106172000Y-7620000D02*
X-97790000Y-16002000D01*
X-97790000Y-16002000D02*
X-97790000Y-20066000D01*
X-97790000Y-20066000D02*
X-93726000Y-24130000D01*
X-107236000Y-8880000D02*
X-106690000Y-8880000D01*
X-106690000Y-8880000D02*
X-98806000Y-16764000D01*
X-98806000Y-16764000D02*
X-98806000Y-21590000D01*
X-98806000Y-21590000D02*
X-93726000Y-26670000D01*
X-109776000Y-8880000D02*
X-109738000Y-8880000D01*
X-109738000Y-8880000D02*
X-108458000Y-10160000D01*
X-108458000Y-10160000D02*
X-106680000Y-10160000D01*
X-106680000Y-10160000D02*
X-100330000Y-16510000D01*
X-100330000Y-16510000D02*
X-100330000Y-22606000D01*
X-100330000Y-22606000D02*
X-93726000Y-29210000D01*
X-107236000Y-11420000D02*
X-107198000Y-11420000D01*
X-107198000Y-11420000D02*
X-101600000Y-17018000D01*
X-101600000Y-17018000D02*
X-101600000Y-23876000D01*
X-101600000Y-23876000D02*
X-93726000Y-31750000D01*
X-93726000Y-34290000D02*
X-93726000Y-33528000D01*
X-93726000Y-33528000D02*
X-102870000Y-24384000D01*
X-102870000Y-24384000D02*
X-102870000Y-18326000D01*
X-102870000Y-18326000D02*
X-109776000Y-11420000D01*
M02*
