G04 #@! TF.FileFunction,Legend,Top*
%FSLAX46Y46*%
G04 Gerber Fmt 4.6, Leading zero omitted, Abs format (unit mm)*
G04 Created by KiCad (PCBNEW 4.0.7) date 10/03/17 18:02:40*
%MOMM*%
%LPD*%
G01*
G04 APERTURE LIST*
%ADD10C,0.100000*%
%ADD11C,0.300000*%
%ADD12C,0.200000*%
%ADD13C,0.120000*%
%ADD14C,0.150000*%
G04 APERTURE END LIST*
D10*
D11*
X-75469714Y21021429D02*
X-76326857Y21021429D01*
X-75898285Y21021429D02*
X-75898285Y22521429D01*
X-76041142Y22307143D01*
X-76184000Y22164286D01*
X-76326857Y22092857D01*
X-74541143Y22521429D02*
X-74398286Y22521429D01*
X-74255429Y22450000D01*
X-74184000Y22378571D01*
X-74112571Y22235714D01*
X-74041143Y21950000D01*
X-74041143Y21592857D01*
X-74112571Y21307143D01*
X-74184000Y21164286D01*
X-74255429Y21092857D01*
X-74398286Y21021429D01*
X-74541143Y21021429D01*
X-74684000Y21092857D01*
X-74755429Y21164286D01*
X-74826857Y21307143D01*
X-74898286Y21592857D01*
X-74898286Y21950000D01*
X-74826857Y22235714D01*
X-74755429Y22378571D01*
X-74684000Y22450000D01*
X-74541143Y22521429D01*
X-75469714Y18471429D02*
X-76326857Y18471429D01*
X-75898285Y18471429D02*
X-75898285Y19971429D01*
X-76041142Y19757143D01*
X-76184000Y19614286D01*
X-76326857Y19542857D01*
X-74041143Y18471429D02*
X-74898286Y18471429D01*
X-74469714Y18471429D02*
X-74469714Y19971429D01*
X-74612571Y19757143D01*
X-74755429Y19614286D01*
X-74898286Y19542857D01*
X-75469714Y15921429D02*
X-76326857Y15921429D01*
X-75898285Y15921429D02*
X-75898285Y17421429D01*
X-76041142Y17207143D01*
X-76184000Y17064286D01*
X-76326857Y16992857D01*
X-74898286Y17278571D02*
X-74826857Y17350000D01*
X-74684000Y17421429D01*
X-74326857Y17421429D01*
X-74184000Y17350000D01*
X-74112571Y17278571D01*
X-74041143Y17135714D01*
X-74041143Y16992857D01*
X-74112571Y16778571D01*
X-74969714Y15921429D01*
X-74041143Y15921429D01*
X-75469714Y13371429D02*
X-76326857Y13371429D01*
X-75898285Y13371429D02*
X-75898285Y14871429D01*
X-76041142Y14657143D01*
X-76184000Y14514286D01*
X-76326857Y14442857D01*
X-74969714Y14871429D02*
X-74041143Y14871429D01*
X-74541143Y14300000D01*
X-74326857Y14300000D01*
X-74184000Y14228571D01*
X-74112571Y14157143D01*
X-74041143Y14014286D01*
X-74041143Y13657143D01*
X-74112571Y13514286D01*
X-74184000Y13442857D01*
X-74326857Y13371429D01*
X-74755429Y13371429D01*
X-74898286Y13442857D01*
X-74969714Y13514286D01*
X-75469714Y10821429D02*
X-76326857Y10821429D01*
X-75898285Y10821429D02*
X-75898285Y12321429D01*
X-76041142Y12107143D01*
X-76184000Y11964286D01*
X-76326857Y11892857D01*
X-74184000Y11821429D02*
X-74184000Y10821429D01*
X-74541143Y12392857D02*
X-74898286Y11321429D01*
X-73969714Y11321429D01*
X-75469714Y8271429D02*
X-76326857Y8271429D01*
X-75898285Y8271429D02*
X-75898285Y9771429D01*
X-76041142Y9557143D01*
X-76184000Y9414286D01*
X-76326857Y9342857D01*
X-74112571Y9771429D02*
X-74826857Y9771429D01*
X-74898286Y9057143D01*
X-74826857Y9128571D01*
X-74684000Y9200000D01*
X-74326857Y9200000D01*
X-74184000Y9128571D01*
X-74112571Y9057143D01*
X-74041143Y8914286D01*
X-74041143Y8557143D01*
X-74112571Y8414286D01*
X-74184000Y8342857D01*
X-74326857Y8271429D01*
X-74684000Y8271429D01*
X-74826857Y8342857D01*
X-74898286Y8414286D01*
X-75469714Y5721429D02*
X-76326857Y5721429D01*
X-75898285Y5721429D02*
X-75898285Y7221429D01*
X-76041142Y7007143D01*
X-76184000Y6864286D01*
X-76326857Y6792857D01*
X-74184000Y7221429D02*
X-74469714Y7221429D01*
X-74612571Y7150000D01*
X-74684000Y7078571D01*
X-74826857Y6864286D01*
X-74898286Y6578571D01*
X-74898286Y6007143D01*
X-74826857Y5864286D01*
X-74755429Y5792857D01*
X-74612571Y5721429D01*
X-74326857Y5721429D01*
X-74184000Y5792857D01*
X-74112571Y5864286D01*
X-74041143Y6007143D01*
X-74041143Y6364286D01*
X-74112571Y6507143D01*
X-74184000Y6578571D01*
X-74326857Y6650000D01*
X-74612571Y6650000D01*
X-74755429Y6578571D01*
X-74826857Y6507143D01*
X-74898286Y6364286D01*
X-75469714Y3171429D02*
X-76326857Y3171429D01*
X-75898285Y3171429D02*
X-75898285Y4671429D01*
X-76041142Y4457143D01*
X-76184000Y4314286D01*
X-76326857Y4242857D01*
X-74969714Y4671429D02*
X-73969714Y4671429D01*
X-74612571Y3171429D01*
X-75469714Y621429D02*
X-76326857Y621429D01*
X-75898285Y621429D02*
X-75898285Y2121429D01*
X-76041142Y1907143D01*
X-76184000Y1764286D01*
X-76326857Y1692857D01*
X-74612571Y1478571D02*
X-74755429Y1550000D01*
X-74826857Y1621429D01*
X-74898286Y1764286D01*
X-74898286Y1835714D01*
X-74826857Y1978571D01*
X-74755429Y2050000D01*
X-74612571Y2121429D01*
X-74326857Y2121429D01*
X-74184000Y2050000D01*
X-74112571Y1978571D01*
X-74041143Y1835714D01*
X-74041143Y1764286D01*
X-74112571Y1621429D01*
X-74184000Y1550000D01*
X-74326857Y1478571D01*
X-74612571Y1478571D01*
X-74755429Y1407143D01*
X-74826857Y1335714D01*
X-74898286Y1192857D01*
X-74898286Y907143D01*
X-74826857Y764286D01*
X-74755429Y692857D01*
X-74612571Y621429D01*
X-74326857Y621429D01*
X-74184000Y692857D01*
X-74112571Y764286D01*
X-74041143Y907143D01*
X-74041143Y1192857D01*
X-74112571Y1335714D01*
X-74184000Y1407143D01*
X-74326857Y1478571D01*
X-75469714Y-1928571D02*
X-76326857Y-1928571D01*
X-75898285Y-1928571D02*
X-75898285Y-428571D01*
X-76041142Y-642857D01*
X-76184000Y-785714D01*
X-76326857Y-857143D01*
X-74755429Y-1928571D02*
X-74469714Y-1928571D01*
X-74326857Y-1857143D01*
X-74255429Y-1785714D01*
X-74112571Y-1571429D01*
X-74041143Y-1285714D01*
X-74041143Y-714286D01*
X-74112571Y-571429D01*
X-74184000Y-500000D01*
X-74326857Y-428571D01*
X-74612571Y-428571D01*
X-74755429Y-500000D01*
X-74826857Y-571429D01*
X-74898286Y-714286D01*
X-74898286Y-1071429D01*
X-74826857Y-1214286D01*
X-74755429Y-1285714D01*
X-74612571Y-1357143D01*
X-74326857Y-1357143D01*
X-74184000Y-1285714D01*
X-74112571Y-1214286D01*
X-74041143Y-1071429D01*
X-76326857Y-3121429D02*
X-76255428Y-3050000D01*
X-76112571Y-2978571D01*
X-75755428Y-2978571D01*
X-75612571Y-3050000D01*
X-75541142Y-3121429D01*
X-75469714Y-3264286D01*
X-75469714Y-3407143D01*
X-75541142Y-3621429D01*
X-76398285Y-4478571D01*
X-75469714Y-4478571D01*
X-74541143Y-2978571D02*
X-74398286Y-2978571D01*
X-74255429Y-3050000D01*
X-74184000Y-3121429D01*
X-74112571Y-3264286D01*
X-74041143Y-3550000D01*
X-74041143Y-3907143D01*
X-74112571Y-4192857D01*
X-74184000Y-4335714D01*
X-74255429Y-4407143D01*
X-74398286Y-4478571D01*
X-74541143Y-4478571D01*
X-74684000Y-4407143D01*
X-74755429Y-4335714D01*
X-74826857Y-4192857D01*
X-74898286Y-3907143D01*
X-74898286Y-3550000D01*
X-74826857Y-3264286D01*
X-74755429Y-3121429D01*
X-74684000Y-3050000D01*
X-74541143Y-2978571D01*
X-76326857Y-5671429D02*
X-76255428Y-5600000D01*
X-76112571Y-5528571D01*
X-75755428Y-5528571D01*
X-75612571Y-5600000D01*
X-75541142Y-5671429D01*
X-75469714Y-5814286D01*
X-75469714Y-5957143D01*
X-75541142Y-6171429D01*
X-76398285Y-7028571D01*
X-75469714Y-7028571D01*
X-74041143Y-7028571D02*
X-74898286Y-7028571D01*
X-74469714Y-7028571D02*
X-74469714Y-5528571D01*
X-74612571Y-5742857D01*
X-74755429Y-5885714D01*
X-74898286Y-5957143D01*
X-76326857Y-8221429D02*
X-76255428Y-8150000D01*
X-76112571Y-8078571D01*
X-75755428Y-8078571D01*
X-75612571Y-8150000D01*
X-75541142Y-8221429D01*
X-75469714Y-8364286D01*
X-75469714Y-8507143D01*
X-75541142Y-8721429D01*
X-76398285Y-9578571D01*
X-75469714Y-9578571D01*
X-74898286Y-8221429D02*
X-74826857Y-8150000D01*
X-74684000Y-8078571D01*
X-74326857Y-8078571D01*
X-74184000Y-8150000D01*
X-74112571Y-8221429D01*
X-74041143Y-8364286D01*
X-74041143Y-8507143D01*
X-74112571Y-8721429D01*
X-74969714Y-9578571D01*
X-74041143Y-9578571D01*
X-76326857Y-10771429D02*
X-76255428Y-10700000D01*
X-76112571Y-10628571D01*
X-75755428Y-10628571D01*
X-75612571Y-10700000D01*
X-75541142Y-10771429D01*
X-75469714Y-10914286D01*
X-75469714Y-11057143D01*
X-75541142Y-11271429D01*
X-76398285Y-12128571D01*
X-75469714Y-12128571D01*
X-74969714Y-10628571D02*
X-74041143Y-10628571D01*
X-74541143Y-11200000D01*
X-74326857Y-11200000D01*
X-74184000Y-11271429D01*
X-74112571Y-11342857D01*
X-74041143Y-11485714D01*
X-74041143Y-11842857D01*
X-74112571Y-11985714D01*
X-74184000Y-12057143D01*
X-74326857Y-12128571D01*
X-74755429Y-12128571D01*
X-74898286Y-12057143D01*
X-74969714Y-11985714D01*
X-76326857Y-13321429D02*
X-76255428Y-13250000D01*
X-76112571Y-13178571D01*
X-75755428Y-13178571D01*
X-75612571Y-13250000D01*
X-75541142Y-13321429D01*
X-75469714Y-13464286D01*
X-75469714Y-13607143D01*
X-75541142Y-13821429D01*
X-76398285Y-14678571D01*
X-75469714Y-14678571D01*
X-74184000Y-13678571D02*
X-74184000Y-14678571D01*
X-74541143Y-13107143D02*
X-74898286Y-14178571D01*
X-73969714Y-14178571D01*
X-76326857Y-15871429D02*
X-76255428Y-15800000D01*
X-76112571Y-15728571D01*
X-75755428Y-15728571D01*
X-75612571Y-15800000D01*
X-75541142Y-15871429D01*
X-75469714Y-16014286D01*
X-75469714Y-16157143D01*
X-75541142Y-16371429D01*
X-76398285Y-17228571D01*
X-75469714Y-17228571D01*
X-74112571Y-15728571D02*
X-74826857Y-15728571D01*
X-74898286Y-16442857D01*
X-74826857Y-16371429D01*
X-74684000Y-16300000D01*
X-74326857Y-16300000D01*
X-74184000Y-16371429D01*
X-74112571Y-16442857D01*
X-74041143Y-16585714D01*
X-74041143Y-16942857D01*
X-74112571Y-17085714D01*
X-74184000Y-17157143D01*
X-74326857Y-17228571D01*
X-74684000Y-17228571D01*
X-74826857Y-17157143D01*
X-74898286Y-17085714D01*
X-76326857Y-18421429D02*
X-76255428Y-18350000D01*
X-76112571Y-18278571D01*
X-75755428Y-18278571D01*
X-75612571Y-18350000D01*
X-75541142Y-18421429D01*
X-75469714Y-18564286D01*
X-75469714Y-18707143D01*
X-75541142Y-18921429D01*
X-76398285Y-19778571D01*
X-75469714Y-19778571D01*
X-74184000Y-18278571D02*
X-74469714Y-18278571D01*
X-74612571Y-18350000D01*
X-74684000Y-18421429D01*
X-74826857Y-18635714D01*
X-74898286Y-18921429D01*
X-74898286Y-19492857D01*
X-74826857Y-19635714D01*
X-74755429Y-19707143D01*
X-74612571Y-19778571D01*
X-74326857Y-19778571D01*
X-74184000Y-19707143D01*
X-74112571Y-19635714D01*
X-74041143Y-19492857D01*
X-74041143Y-19135714D01*
X-74112571Y-18992857D01*
X-74184000Y-18921429D01*
X-74326857Y-18850000D01*
X-74612571Y-18850000D01*
X-74755429Y-18921429D01*
X-74826857Y-18992857D01*
X-74898286Y-19135714D01*
X-76326857Y-20971429D02*
X-76255428Y-20900000D01*
X-76112571Y-20828571D01*
X-75755428Y-20828571D01*
X-75612571Y-20900000D01*
X-75541142Y-20971429D01*
X-75469714Y-21114286D01*
X-75469714Y-21257143D01*
X-75541142Y-21471429D01*
X-76398285Y-22328571D01*
X-75469714Y-22328571D01*
X-74969714Y-20828571D02*
X-73969714Y-20828571D01*
X-74612571Y-22328571D01*
X-76326857Y-23521429D02*
X-76255428Y-23450000D01*
X-76112571Y-23378571D01*
X-75755428Y-23378571D01*
X-75612571Y-23450000D01*
X-75541142Y-23521429D01*
X-75469714Y-23664286D01*
X-75469714Y-23807143D01*
X-75541142Y-24021429D01*
X-76398285Y-24878571D01*
X-75469714Y-24878571D01*
X-74612571Y-24021429D02*
X-74755429Y-23950000D01*
X-74826857Y-23878571D01*
X-74898286Y-23735714D01*
X-74898286Y-23664286D01*
X-74826857Y-23521429D01*
X-74755429Y-23450000D01*
X-74612571Y-23378571D01*
X-74326857Y-23378571D01*
X-74184000Y-23450000D01*
X-74112571Y-23521429D01*
X-74041143Y-23664286D01*
X-74041143Y-23735714D01*
X-74112571Y-23878571D01*
X-74184000Y-23950000D01*
X-74326857Y-24021429D01*
X-74612571Y-24021429D01*
X-74755429Y-24092857D01*
X-74826857Y-24164286D01*
X-74898286Y-24307143D01*
X-74898286Y-24592857D01*
X-74826857Y-24735714D01*
X-74755429Y-24807143D01*
X-74612571Y-24878571D01*
X-74326857Y-24878571D01*
X-74184000Y-24807143D01*
X-74112571Y-24735714D01*
X-74041143Y-24592857D01*
X-74041143Y-24307143D01*
X-74112571Y-24164286D01*
X-74184000Y-24092857D01*
X-74326857Y-24021429D01*
X-76326857Y-26071429D02*
X-76255428Y-26000000D01*
X-76112571Y-25928571D01*
X-75755428Y-25928571D01*
X-75612571Y-26000000D01*
X-75541142Y-26071429D01*
X-75469714Y-26214286D01*
X-75469714Y-26357143D01*
X-75541142Y-26571429D01*
X-76398285Y-27428571D01*
X-75469714Y-27428571D01*
X-74755429Y-27428571D02*
X-74469714Y-27428571D01*
X-74326857Y-27357143D01*
X-74255429Y-27285714D01*
X-74112571Y-27071429D01*
X-74041143Y-26785714D01*
X-74041143Y-26214286D01*
X-74112571Y-26071429D01*
X-74184000Y-26000000D01*
X-74326857Y-25928571D01*
X-74612571Y-25928571D01*
X-74755429Y-26000000D01*
X-74826857Y-26071429D01*
X-74898286Y-26214286D01*
X-74898286Y-26571429D01*
X-74826857Y-26714286D01*
X-74755429Y-26785714D01*
X-74612571Y-26857143D01*
X-74326857Y-26857143D01*
X-74184000Y-26785714D01*
X-74112571Y-26714286D01*
X-74041143Y-26571429D01*
X-76398285Y-28478571D02*
X-75469714Y-28478571D01*
X-75969714Y-29050000D01*
X-75755428Y-29050000D01*
X-75612571Y-29121429D01*
X-75541142Y-29192857D01*
X-75469714Y-29335714D01*
X-75469714Y-29692857D01*
X-75541142Y-29835714D01*
X-75612571Y-29907143D01*
X-75755428Y-29978571D01*
X-76184000Y-29978571D01*
X-76326857Y-29907143D01*
X-76398285Y-29835714D01*
X-74541143Y-28478571D02*
X-74398286Y-28478571D01*
X-74255429Y-28550000D01*
X-74184000Y-28621429D01*
X-74112571Y-28764286D01*
X-74041143Y-29050000D01*
X-74041143Y-29407143D01*
X-74112571Y-29692857D01*
X-74184000Y-29835714D01*
X-74255429Y-29907143D01*
X-74398286Y-29978571D01*
X-74541143Y-29978571D01*
X-74684000Y-29907143D01*
X-74755429Y-29835714D01*
X-74826857Y-29692857D01*
X-74898286Y-29407143D01*
X-74898286Y-29050000D01*
X-74826857Y-28764286D01*
X-74755429Y-28621429D01*
X-74684000Y-28550000D01*
X-74541143Y-28478571D01*
X-76398285Y-31028571D02*
X-75469714Y-31028571D01*
X-75969714Y-31600000D01*
X-75755428Y-31600000D01*
X-75612571Y-31671429D01*
X-75541142Y-31742857D01*
X-75469714Y-31885714D01*
X-75469714Y-32242857D01*
X-75541142Y-32385714D01*
X-75612571Y-32457143D01*
X-75755428Y-32528571D01*
X-76184000Y-32528571D01*
X-76326857Y-32457143D01*
X-76398285Y-32385714D01*
X-74041143Y-32528571D02*
X-74898286Y-32528571D01*
X-74469714Y-32528571D02*
X-74469714Y-31028571D01*
X-74612571Y-31242857D01*
X-74755429Y-31385714D01*
X-74898286Y-31457143D01*
X-76398285Y-33578571D02*
X-75469714Y-33578571D01*
X-75969714Y-34150000D01*
X-75755428Y-34150000D01*
X-75612571Y-34221429D01*
X-75541142Y-34292857D01*
X-75469714Y-34435714D01*
X-75469714Y-34792857D01*
X-75541142Y-34935714D01*
X-75612571Y-35007143D01*
X-75755428Y-35078571D01*
X-76184000Y-35078571D01*
X-76326857Y-35007143D01*
X-76398285Y-34935714D01*
X-74898286Y-33721429D02*
X-74826857Y-33650000D01*
X-74684000Y-33578571D01*
X-74326857Y-33578571D01*
X-74184000Y-33650000D01*
X-74112571Y-33721429D01*
X-74041143Y-33864286D01*
X-74041143Y-34007143D01*
X-74112571Y-34221429D01*
X-74969714Y-35078571D01*
X-74041143Y-35078571D01*
D12*
X-58868039Y24384000D02*
G75*
G03X-58868039Y24384000I-567961J0D01*
G01*
D11*
X-97385142Y-383571D02*
X-98099428Y-383571D01*
X-98170857Y-1097857D01*
X-98099428Y-1026429D01*
X-97956571Y-955000D01*
X-97599428Y-955000D01*
X-97456571Y-1026429D01*
X-97385142Y-1097857D01*
X-97313714Y-1240714D01*
X-97313714Y-1597857D01*
X-97385142Y-1740714D01*
X-97456571Y-1812143D01*
X-97599428Y-1883571D01*
X-97956571Y-1883571D01*
X-98099428Y-1812143D01*
X-98170857Y-1740714D01*
X-95885143Y-1883571D02*
X-96742286Y-1883571D01*
X-96313714Y-1883571D02*
X-96313714Y-383571D01*
X-96456571Y-597857D01*
X-96599429Y-740714D01*
X-96742286Y-812143D01*
X-97385142Y-2933571D02*
X-98099428Y-2933571D01*
X-98170857Y-3647857D01*
X-98099428Y-3576429D01*
X-97956571Y-3505000D01*
X-97599428Y-3505000D01*
X-97456571Y-3576429D01*
X-97385142Y-3647857D01*
X-97313714Y-3790714D01*
X-97313714Y-4147857D01*
X-97385142Y-4290714D01*
X-97456571Y-4362143D01*
X-97599428Y-4433571D01*
X-97956571Y-4433571D01*
X-98099428Y-4362143D01*
X-98170857Y-4290714D01*
X-96742286Y-3076429D02*
X-96670857Y-3005000D01*
X-96528000Y-2933571D01*
X-96170857Y-2933571D01*
X-96028000Y-3005000D01*
X-95956571Y-3076429D01*
X-95885143Y-3219286D01*
X-95885143Y-3362143D01*
X-95956571Y-3576429D01*
X-96813714Y-4433571D01*
X-95885143Y-4433571D01*
X-97385142Y-5483571D02*
X-98099428Y-5483571D01*
X-98170857Y-6197857D01*
X-98099428Y-6126429D01*
X-97956571Y-6055000D01*
X-97599428Y-6055000D01*
X-97456571Y-6126429D01*
X-97385142Y-6197857D01*
X-97313714Y-6340714D01*
X-97313714Y-6697857D01*
X-97385142Y-6840714D01*
X-97456571Y-6912143D01*
X-97599428Y-6983571D01*
X-97956571Y-6983571D01*
X-98099428Y-6912143D01*
X-98170857Y-6840714D01*
X-96813714Y-5483571D02*
X-95885143Y-5483571D01*
X-96385143Y-6055000D01*
X-96170857Y-6055000D01*
X-96028000Y-6126429D01*
X-95956571Y-6197857D01*
X-95885143Y-6340714D01*
X-95885143Y-6697857D01*
X-95956571Y-6840714D01*
X-96028000Y-6912143D01*
X-96170857Y-6983571D01*
X-96599429Y-6983571D01*
X-96742286Y-6912143D01*
X-96813714Y-6840714D01*
X-97385142Y-8033571D02*
X-98099428Y-8033571D01*
X-98170857Y-8747857D01*
X-98099428Y-8676429D01*
X-97956571Y-8605000D01*
X-97599428Y-8605000D01*
X-97456571Y-8676429D01*
X-97385142Y-8747857D01*
X-97313714Y-8890714D01*
X-97313714Y-9247857D01*
X-97385142Y-9390714D01*
X-97456571Y-9462143D01*
X-97599428Y-9533571D01*
X-97956571Y-9533571D01*
X-98099428Y-9462143D01*
X-98170857Y-9390714D01*
X-96028000Y-8533571D02*
X-96028000Y-9533571D01*
X-96385143Y-7962143D02*
X-96742286Y-9033571D01*
X-95813714Y-9033571D01*
X-97385142Y-10583571D02*
X-98099428Y-10583571D01*
X-98170857Y-11297857D01*
X-98099428Y-11226429D01*
X-97956571Y-11155000D01*
X-97599428Y-11155000D01*
X-97456571Y-11226429D01*
X-97385142Y-11297857D01*
X-97313714Y-11440714D01*
X-97313714Y-11797857D01*
X-97385142Y-11940714D01*
X-97456571Y-12012143D01*
X-97599428Y-12083571D01*
X-97956571Y-12083571D01*
X-98099428Y-12012143D01*
X-98170857Y-11940714D01*
X-95956571Y-10583571D02*
X-96670857Y-10583571D01*
X-96742286Y-11297857D01*
X-96670857Y-11226429D01*
X-96528000Y-11155000D01*
X-96170857Y-11155000D01*
X-96028000Y-11226429D01*
X-95956571Y-11297857D01*
X-95885143Y-11440714D01*
X-95885143Y-11797857D01*
X-95956571Y-11940714D01*
X-96028000Y-12012143D01*
X-96170857Y-12083571D01*
X-96528000Y-12083571D01*
X-96670857Y-12012143D01*
X-96742286Y-11940714D01*
X-97385142Y-13133571D02*
X-98099428Y-13133571D01*
X-98170857Y-13847857D01*
X-98099428Y-13776429D01*
X-97956571Y-13705000D01*
X-97599428Y-13705000D01*
X-97456571Y-13776429D01*
X-97385142Y-13847857D01*
X-97313714Y-13990714D01*
X-97313714Y-14347857D01*
X-97385142Y-14490714D01*
X-97456571Y-14562143D01*
X-97599428Y-14633571D01*
X-97956571Y-14633571D01*
X-98099428Y-14562143D01*
X-98170857Y-14490714D01*
X-96028000Y-13133571D02*
X-96313714Y-13133571D01*
X-96456571Y-13205000D01*
X-96528000Y-13276429D01*
X-96670857Y-13490714D01*
X-96742286Y-13776429D01*
X-96742286Y-14347857D01*
X-96670857Y-14490714D01*
X-96599429Y-14562143D01*
X-96456571Y-14633571D01*
X-96170857Y-14633571D01*
X-96028000Y-14562143D01*
X-95956571Y-14490714D01*
X-95885143Y-14347857D01*
X-95885143Y-13990714D01*
X-95956571Y-13847857D01*
X-96028000Y-13776429D01*
X-96170857Y-13705000D01*
X-96456571Y-13705000D01*
X-96599429Y-13776429D01*
X-96670857Y-13847857D01*
X-96742286Y-13990714D01*
X-97385142Y-15683571D02*
X-98099428Y-15683571D01*
X-98170857Y-16397857D01*
X-98099428Y-16326429D01*
X-97956571Y-16255000D01*
X-97599428Y-16255000D01*
X-97456571Y-16326429D01*
X-97385142Y-16397857D01*
X-97313714Y-16540714D01*
X-97313714Y-16897857D01*
X-97385142Y-17040714D01*
X-97456571Y-17112143D01*
X-97599428Y-17183571D01*
X-97956571Y-17183571D01*
X-98099428Y-17112143D01*
X-98170857Y-17040714D01*
X-96813714Y-15683571D02*
X-95813714Y-15683571D01*
X-96456571Y-17183571D01*
X-97385142Y-18233571D02*
X-98099428Y-18233571D01*
X-98170857Y-18947857D01*
X-98099428Y-18876429D01*
X-97956571Y-18805000D01*
X-97599428Y-18805000D01*
X-97456571Y-18876429D01*
X-97385142Y-18947857D01*
X-97313714Y-19090714D01*
X-97313714Y-19447857D01*
X-97385142Y-19590714D01*
X-97456571Y-19662143D01*
X-97599428Y-19733571D01*
X-97956571Y-19733571D01*
X-98099428Y-19662143D01*
X-98170857Y-19590714D01*
X-96456571Y-18876429D02*
X-96599429Y-18805000D01*
X-96670857Y-18733571D01*
X-96742286Y-18590714D01*
X-96742286Y-18519286D01*
X-96670857Y-18376429D01*
X-96599429Y-18305000D01*
X-96456571Y-18233571D01*
X-96170857Y-18233571D01*
X-96028000Y-18305000D01*
X-95956571Y-18376429D01*
X-95885143Y-18519286D01*
X-95885143Y-18590714D01*
X-95956571Y-18733571D01*
X-96028000Y-18805000D01*
X-96170857Y-18876429D01*
X-96456571Y-18876429D01*
X-96599429Y-18947857D01*
X-96670857Y-19019286D01*
X-96742286Y-19162143D01*
X-96742286Y-19447857D01*
X-96670857Y-19590714D01*
X-96599429Y-19662143D01*
X-96456571Y-19733571D01*
X-96170857Y-19733571D01*
X-96028000Y-19662143D01*
X-95956571Y-19590714D01*
X-95885143Y-19447857D01*
X-95885143Y-19162143D01*
X-95956571Y-19019286D01*
X-96028000Y-18947857D01*
X-96170857Y-18876429D01*
X-97385142Y-20783571D02*
X-98099428Y-20783571D01*
X-98170857Y-21497857D01*
X-98099428Y-21426429D01*
X-97956571Y-21355000D01*
X-97599428Y-21355000D01*
X-97456571Y-21426429D01*
X-97385142Y-21497857D01*
X-97313714Y-21640714D01*
X-97313714Y-21997857D01*
X-97385142Y-22140714D01*
X-97456571Y-22212143D01*
X-97599428Y-22283571D01*
X-97956571Y-22283571D01*
X-98099428Y-22212143D01*
X-98170857Y-22140714D01*
X-96599429Y-22283571D02*
X-96313714Y-22283571D01*
X-96170857Y-22212143D01*
X-96099429Y-22140714D01*
X-95956571Y-21926429D01*
X-95885143Y-21640714D01*
X-95885143Y-21069286D01*
X-95956571Y-20926429D01*
X-96028000Y-20855000D01*
X-96170857Y-20783571D01*
X-96456571Y-20783571D01*
X-96599429Y-20855000D01*
X-96670857Y-20926429D01*
X-96742286Y-21069286D01*
X-96742286Y-21426429D01*
X-96670857Y-21569286D01*
X-96599429Y-21640714D01*
X-96456571Y-21712143D01*
X-96170857Y-21712143D01*
X-96028000Y-21640714D01*
X-95956571Y-21569286D01*
X-95885143Y-21426429D01*
X-97456571Y-23333571D02*
X-97742285Y-23333571D01*
X-97885142Y-23405000D01*
X-97956571Y-23476429D01*
X-98099428Y-23690714D01*
X-98170857Y-23976429D01*
X-98170857Y-24547857D01*
X-98099428Y-24690714D01*
X-98028000Y-24762143D01*
X-97885142Y-24833571D01*
X-97599428Y-24833571D01*
X-97456571Y-24762143D01*
X-97385142Y-24690714D01*
X-97313714Y-24547857D01*
X-97313714Y-24190714D01*
X-97385142Y-24047857D01*
X-97456571Y-23976429D01*
X-97599428Y-23905000D01*
X-97885142Y-23905000D01*
X-98028000Y-23976429D01*
X-98099428Y-24047857D01*
X-98170857Y-24190714D01*
X-96385143Y-23333571D02*
X-96242286Y-23333571D01*
X-96099429Y-23405000D01*
X-96028000Y-23476429D01*
X-95956571Y-23619286D01*
X-95885143Y-23905000D01*
X-95885143Y-24262143D01*
X-95956571Y-24547857D01*
X-96028000Y-24690714D01*
X-96099429Y-24762143D01*
X-96242286Y-24833571D01*
X-96385143Y-24833571D01*
X-96528000Y-24762143D01*
X-96599429Y-24690714D01*
X-96670857Y-24547857D01*
X-96742286Y-24262143D01*
X-96742286Y-23905000D01*
X-96670857Y-23619286D01*
X-96599429Y-23476429D01*
X-96528000Y-23405000D01*
X-96385143Y-23333571D01*
X-97456571Y-25883571D02*
X-97742285Y-25883571D01*
X-97885142Y-25955000D01*
X-97956571Y-26026429D01*
X-98099428Y-26240714D01*
X-98170857Y-26526429D01*
X-98170857Y-27097857D01*
X-98099428Y-27240714D01*
X-98028000Y-27312143D01*
X-97885142Y-27383571D01*
X-97599428Y-27383571D01*
X-97456571Y-27312143D01*
X-97385142Y-27240714D01*
X-97313714Y-27097857D01*
X-97313714Y-26740714D01*
X-97385142Y-26597857D01*
X-97456571Y-26526429D01*
X-97599428Y-26455000D01*
X-97885142Y-26455000D01*
X-98028000Y-26526429D01*
X-98099428Y-26597857D01*
X-98170857Y-26740714D01*
X-95885143Y-27383571D02*
X-96742286Y-27383571D01*
X-96313714Y-27383571D02*
X-96313714Y-25883571D01*
X-96456571Y-26097857D01*
X-96599429Y-26240714D01*
X-96742286Y-26312143D01*
X-97456571Y-28433571D02*
X-97742285Y-28433571D01*
X-97885142Y-28505000D01*
X-97956571Y-28576429D01*
X-98099428Y-28790714D01*
X-98170857Y-29076429D01*
X-98170857Y-29647857D01*
X-98099428Y-29790714D01*
X-98028000Y-29862143D01*
X-97885142Y-29933571D01*
X-97599428Y-29933571D01*
X-97456571Y-29862143D01*
X-97385142Y-29790714D01*
X-97313714Y-29647857D01*
X-97313714Y-29290714D01*
X-97385142Y-29147857D01*
X-97456571Y-29076429D01*
X-97599428Y-29005000D01*
X-97885142Y-29005000D01*
X-98028000Y-29076429D01*
X-98099428Y-29147857D01*
X-98170857Y-29290714D01*
X-96742286Y-28576429D02*
X-96670857Y-28505000D01*
X-96528000Y-28433571D01*
X-96170857Y-28433571D01*
X-96028000Y-28505000D01*
X-95956571Y-28576429D01*
X-95885143Y-28719286D01*
X-95885143Y-28862143D01*
X-95956571Y-29076429D01*
X-96813714Y-29933571D01*
X-95885143Y-29933571D01*
X-97456571Y-30983571D02*
X-97742285Y-30983571D01*
X-97885142Y-31055000D01*
X-97956571Y-31126429D01*
X-98099428Y-31340714D01*
X-98170857Y-31626429D01*
X-98170857Y-32197857D01*
X-98099428Y-32340714D01*
X-98028000Y-32412143D01*
X-97885142Y-32483571D01*
X-97599428Y-32483571D01*
X-97456571Y-32412143D01*
X-97385142Y-32340714D01*
X-97313714Y-32197857D01*
X-97313714Y-31840714D01*
X-97385142Y-31697857D01*
X-97456571Y-31626429D01*
X-97599428Y-31555000D01*
X-97885142Y-31555000D01*
X-98028000Y-31626429D01*
X-98099428Y-31697857D01*
X-98170857Y-31840714D01*
X-96813714Y-30983571D02*
X-95885143Y-30983571D01*
X-96385143Y-31555000D01*
X-96170857Y-31555000D01*
X-96028000Y-31626429D01*
X-95956571Y-31697857D01*
X-95885143Y-31840714D01*
X-95885143Y-32197857D01*
X-95956571Y-32340714D01*
X-96028000Y-32412143D01*
X-96170857Y-32483571D01*
X-96599429Y-32483571D01*
X-96742286Y-32412143D01*
X-96813714Y-32340714D01*
X-97456571Y-33533571D02*
X-97742285Y-33533571D01*
X-97885142Y-33605000D01*
X-97956571Y-33676429D01*
X-98099428Y-33890714D01*
X-98170857Y-34176429D01*
X-98170857Y-34747857D01*
X-98099428Y-34890714D01*
X-98028000Y-34962143D01*
X-97885142Y-35033571D01*
X-97599428Y-35033571D01*
X-97456571Y-34962143D01*
X-97385142Y-34890714D01*
X-97313714Y-34747857D01*
X-97313714Y-34390714D01*
X-97385142Y-34247857D01*
X-97456571Y-34176429D01*
X-97599428Y-34105000D01*
X-97885142Y-34105000D01*
X-98028000Y-34176429D01*
X-98099428Y-34247857D01*
X-98170857Y-34390714D01*
X-96028000Y-34033571D02*
X-96028000Y-35033571D01*
X-96385143Y-33462143D02*
X-96742286Y-34533571D01*
X-95813714Y-34533571D01*
X-97202571Y24496429D02*
X-97202571Y23496429D01*
X-97559714Y25067857D02*
X-97916857Y23996429D01*
X-96988285Y23996429D01*
X-95631143Y23496429D02*
X-96488286Y23496429D01*
X-96059714Y23496429D02*
X-96059714Y24996429D01*
X-96202571Y24782143D01*
X-96345429Y24639286D01*
X-96488286Y24567857D01*
X-97202571Y21946429D02*
X-97202571Y20946429D01*
X-97559714Y22517857D02*
X-97916857Y21446429D01*
X-96988285Y21446429D01*
X-96488286Y22303571D02*
X-96416857Y22375000D01*
X-96274000Y22446429D01*
X-95916857Y22446429D01*
X-95774000Y22375000D01*
X-95702571Y22303571D01*
X-95631143Y22160714D01*
X-95631143Y22017857D01*
X-95702571Y21803571D01*
X-96559714Y20946429D01*
X-95631143Y20946429D01*
X-97202571Y19396429D02*
X-97202571Y18396429D01*
X-97559714Y19967857D02*
X-97916857Y18896429D01*
X-96988285Y18896429D01*
X-96559714Y19896429D02*
X-95631143Y19896429D01*
X-96131143Y19325000D01*
X-95916857Y19325000D01*
X-95774000Y19253571D01*
X-95702571Y19182143D01*
X-95631143Y19039286D01*
X-95631143Y18682143D01*
X-95702571Y18539286D01*
X-95774000Y18467857D01*
X-95916857Y18396429D01*
X-96345429Y18396429D01*
X-96488286Y18467857D01*
X-96559714Y18539286D01*
X-97202571Y16846429D02*
X-97202571Y15846429D01*
X-97559714Y17417857D02*
X-97916857Y16346429D01*
X-96988285Y16346429D01*
X-95774000Y16846429D02*
X-95774000Y15846429D01*
X-96131143Y17417857D02*
X-96488286Y16346429D01*
X-95559714Y16346429D01*
X-97202571Y14296429D02*
X-97202571Y13296429D01*
X-97559714Y14867857D02*
X-97916857Y13796429D01*
X-96988285Y13796429D01*
X-95702571Y14796429D02*
X-96416857Y14796429D01*
X-96488286Y14082143D01*
X-96416857Y14153571D01*
X-96274000Y14225000D01*
X-95916857Y14225000D01*
X-95774000Y14153571D01*
X-95702571Y14082143D01*
X-95631143Y13939286D01*
X-95631143Y13582143D01*
X-95702571Y13439286D01*
X-95774000Y13367857D01*
X-95916857Y13296429D01*
X-96274000Y13296429D01*
X-96416857Y13367857D01*
X-96488286Y13439286D01*
X-97202571Y11746429D02*
X-97202571Y10746429D01*
X-97559714Y12317857D02*
X-97916857Y11246429D01*
X-96988285Y11246429D01*
X-95774000Y12246429D02*
X-96059714Y12246429D01*
X-96202571Y12175000D01*
X-96274000Y12103571D01*
X-96416857Y11889286D01*
X-96488286Y11603571D01*
X-96488286Y11032143D01*
X-96416857Y10889286D01*
X-96345429Y10817857D01*
X-96202571Y10746429D01*
X-95916857Y10746429D01*
X-95774000Y10817857D01*
X-95702571Y10889286D01*
X-95631143Y11032143D01*
X-95631143Y11389286D01*
X-95702571Y11532143D01*
X-95774000Y11603571D01*
X-95916857Y11675000D01*
X-96202571Y11675000D01*
X-96345429Y11603571D01*
X-96416857Y11532143D01*
X-96488286Y11389286D01*
X-97202571Y9196429D02*
X-97202571Y8196429D01*
X-97559714Y9767857D02*
X-97916857Y8696429D01*
X-96988285Y8696429D01*
X-96559714Y9696429D02*
X-95559714Y9696429D01*
X-96202571Y8196429D01*
X-97202571Y6646429D02*
X-97202571Y5646429D01*
X-97559714Y7217857D02*
X-97916857Y6146429D01*
X-96988285Y6146429D01*
X-96202571Y6503571D02*
X-96345429Y6575000D01*
X-96416857Y6646429D01*
X-96488286Y6789286D01*
X-96488286Y6860714D01*
X-96416857Y7003571D01*
X-96345429Y7075000D01*
X-96202571Y7146429D01*
X-95916857Y7146429D01*
X-95774000Y7075000D01*
X-95702571Y7003571D01*
X-95631143Y6860714D01*
X-95631143Y6789286D01*
X-95702571Y6646429D01*
X-95774000Y6575000D01*
X-95916857Y6503571D01*
X-96202571Y6503571D01*
X-96345429Y6432143D01*
X-96416857Y6360714D01*
X-96488286Y6217857D01*
X-96488286Y5932143D01*
X-96416857Y5789286D01*
X-96345429Y5717857D01*
X-96202571Y5646429D01*
X-95916857Y5646429D01*
X-95774000Y5717857D01*
X-95702571Y5789286D01*
X-95631143Y5932143D01*
X-95631143Y6217857D01*
X-95702571Y6360714D01*
X-95774000Y6432143D01*
X-95916857Y6503571D01*
X-97202571Y4096429D02*
X-97202571Y3096429D01*
X-97559714Y4667857D02*
X-97916857Y3596429D01*
X-96988285Y3596429D01*
X-96345429Y3096429D02*
X-96059714Y3096429D01*
X-95916857Y3167857D01*
X-95845429Y3239286D01*
X-95702571Y3453571D01*
X-95631143Y3739286D01*
X-95631143Y4310714D01*
X-95702571Y4453571D01*
X-95774000Y4525000D01*
X-95916857Y4596429D01*
X-96202571Y4596429D01*
X-96345429Y4525000D01*
X-96416857Y4453571D01*
X-96488286Y4310714D01*
X-96488286Y3953571D01*
X-96416857Y3810714D01*
X-96345429Y3739286D01*
X-96202571Y3667857D01*
X-95916857Y3667857D01*
X-95774000Y3739286D01*
X-95702571Y3810714D01*
X-95631143Y3953571D01*
X-97131142Y2046429D02*
X-97845428Y2046429D01*
X-97916857Y1332143D01*
X-97845428Y1403571D01*
X-97702571Y1475000D01*
X-97345428Y1475000D01*
X-97202571Y1403571D01*
X-97131142Y1332143D01*
X-97059714Y1189286D01*
X-97059714Y832143D01*
X-97131142Y689286D01*
X-97202571Y617857D01*
X-97345428Y546429D01*
X-97702571Y546429D01*
X-97845428Y617857D01*
X-97916857Y689286D01*
X-96131143Y2046429D02*
X-95988286Y2046429D01*
X-95845429Y1975000D01*
X-95774000Y1903571D01*
X-95702571Y1760714D01*
X-95631143Y1475000D01*
X-95631143Y1117857D01*
X-95702571Y832143D01*
X-95774000Y689286D01*
X-95845429Y617857D01*
X-95988286Y546429D01*
X-96131143Y546429D01*
X-96274000Y617857D01*
X-96345429Y689286D01*
X-96416857Y832143D01*
X-96488286Y1117857D01*
X-96488286Y1475000D01*
X-96416857Y1760714D01*
X-96345429Y1903571D01*
X-96274000Y1975000D01*
X-96131143Y2046429D01*
X-97988285Y45052429D02*
X-97059714Y45052429D01*
X-97559714Y44481000D01*
X-97345428Y44481000D01*
X-97202571Y44409571D01*
X-97131142Y44338143D01*
X-97059714Y44195286D01*
X-97059714Y43838143D01*
X-97131142Y43695286D01*
X-97202571Y43623857D01*
X-97345428Y43552429D01*
X-97774000Y43552429D01*
X-97916857Y43623857D01*
X-97988285Y43695286D01*
X-96559714Y45052429D02*
X-95631143Y45052429D01*
X-96131143Y44481000D01*
X-95916857Y44481000D01*
X-95774000Y44409571D01*
X-95702571Y44338143D01*
X-95631143Y44195286D01*
X-95631143Y43838143D01*
X-95702571Y43695286D01*
X-95774000Y43623857D01*
X-95916857Y43552429D01*
X-96345429Y43552429D01*
X-96488286Y43623857D01*
X-96559714Y43695286D01*
X-97988285Y42502429D02*
X-97059714Y42502429D01*
X-97559714Y41931000D01*
X-97345428Y41931000D01*
X-97202571Y41859571D01*
X-97131142Y41788143D01*
X-97059714Y41645286D01*
X-97059714Y41288143D01*
X-97131142Y41145286D01*
X-97202571Y41073857D01*
X-97345428Y41002429D01*
X-97774000Y41002429D01*
X-97916857Y41073857D01*
X-97988285Y41145286D01*
X-95774000Y42002429D02*
X-95774000Y41002429D01*
X-96131143Y42573857D02*
X-96488286Y41502429D01*
X-95559714Y41502429D01*
X-97988285Y39952429D02*
X-97059714Y39952429D01*
X-97559714Y39381000D01*
X-97345428Y39381000D01*
X-97202571Y39309571D01*
X-97131142Y39238143D01*
X-97059714Y39095286D01*
X-97059714Y38738143D01*
X-97131142Y38595286D01*
X-97202571Y38523857D01*
X-97345428Y38452429D01*
X-97774000Y38452429D01*
X-97916857Y38523857D01*
X-97988285Y38595286D01*
X-95702571Y39952429D02*
X-96416857Y39952429D01*
X-96488286Y39238143D01*
X-96416857Y39309571D01*
X-96274000Y39381000D01*
X-95916857Y39381000D01*
X-95774000Y39309571D01*
X-95702571Y39238143D01*
X-95631143Y39095286D01*
X-95631143Y38738143D01*
X-95702571Y38595286D01*
X-95774000Y38523857D01*
X-95916857Y38452429D01*
X-96274000Y38452429D01*
X-96416857Y38523857D01*
X-96488286Y38595286D01*
X-97988285Y37402429D02*
X-97059714Y37402429D01*
X-97559714Y36831000D01*
X-97345428Y36831000D01*
X-97202571Y36759571D01*
X-97131142Y36688143D01*
X-97059714Y36545286D01*
X-97059714Y36188143D01*
X-97131142Y36045286D01*
X-97202571Y35973857D01*
X-97345428Y35902429D01*
X-97774000Y35902429D01*
X-97916857Y35973857D01*
X-97988285Y36045286D01*
X-95774000Y37402429D02*
X-96059714Y37402429D01*
X-96202571Y37331000D01*
X-96274000Y37259571D01*
X-96416857Y37045286D01*
X-96488286Y36759571D01*
X-96488286Y36188143D01*
X-96416857Y36045286D01*
X-96345429Y35973857D01*
X-96202571Y35902429D01*
X-95916857Y35902429D01*
X-95774000Y35973857D01*
X-95702571Y36045286D01*
X-95631143Y36188143D01*
X-95631143Y36545286D01*
X-95702571Y36688143D01*
X-95774000Y36759571D01*
X-95916857Y36831000D01*
X-96202571Y36831000D01*
X-96345429Y36759571D01*
X-96416857Y36688143D01*
X-96488286Y36545286D01*
X-97988285Y34852429D02*
X-97059714Y34852429D01*
X-97559714Y34281000D01*
X-97345428Y34281000D01*
X-97202571Y34209571D01*
X-97131142Y34138143D01*
X-97059714Y33995286D01*
X-97059714Y33638143D01*
X-97131142Y33495286D01*
X-97202571Y33423857D01*
X-97345428Y33352429D01*
X-97774000Y33352429D01*
X-97916857Y33423857D01*
X-97988285Y33495286D01*
X-96559714Y34852429D02*
X-95559714Y34852429D01*
X-96202571Y33352429D01*
X-97988285Y32302429D02*
X-97059714Y32302429D01*
X-97559714Y31731000D01*
X-97345428Y31731000D01*
X-97202571Y31659571D01*
X-97131142Y31588143D01*
X-97059714Y31445286D01*
X-97059714Y31088143D01*
X-97131142Y30945286D01*
X-97202571Y30873857D01*
X-97345428Y30802429D01*
X-97774000Y30802429D01*
X-97916857Y30873857D01*
X-97988285Y30945286D01*
X-96202571Y31659571D02*
X-96345429Y31731000D01*
X-96416857Y31802429D01*
X-96488286Y31945286D01*
X-96488286Y32016714D01*
X-96416857Y32159571D01*
X-96345429Y32231000D01*
X-96202571Y32302429D01*
X-95916857Y32302429D01*
X-95774000Y32231000D01*
X-95702571Y32159571D01*
X-95631143Y32016714D01*
X-95631143Y31945286D01*
X-95702571Y31802429D01*
X-95774000Y31731000D01*
X-95916857Y31659571D01*
X-96202571Y31659571D01*
X-96345429Y31588143D01*
X-96416857Y31516714D01*
X-96488286Y31373857D01*
X-96488286Y31088143D01*
X-96416857Y30945286D01*
X-96345429Y30873857D01*
X-96202571Y30802429D01*
X-95916857Y30802429D01*
X-95774000Y30873857D01*
X-95702571Y30945286D01*
X-95631143Y31088143D01*
X-95631143Y31373857D01*
X-95702571Y31516714D01*
X-95774000Y31588143D01*
X-95916857Y31659571D01*
X-97988285Y29752429D02*
X-97059714Y29752429D01*
X-97559714Y29181000D01*
X-97345428Y29181000D01*
X-97202571Y29109571D01*
X-97131142Y29038143D01*
X-97059714Y28895286D01*
X-97059714Y28538143D01*
X-97131142Y28395286D01*
X-97202571Y28323857D01*
X-97345428Y28252429D01*
X-97774000Y28252429D01*
X-97916857Y28323857D01*
X-97988285Y28395286D01*
X-96345429Y28252429D02*
X-96059714Y28252429D01*
X-95916857Y28323857D01*
X-95845429Y28395286D01*
X-95702571Y28609571D01*
X-95631143Y28895286D01*
X-95631143Y29466714D01*
X-95702571Y29609571D01*
X-95774000Y29681000D01*
X-95916857Y29752429D01*
X-96202571Y29752429D01*
X-96345429Y29681000D01*
X-96416857Y29609571D01*
X-96488286Y29466714D01*
X-96488286Y29109571D01*
X-96416857Y28966714D01*
X-96345429Y28895286D01*
X-96202571Y28823857D01*
X-95916857Y28823857D01*
X-95774000Y28895286D01*
X-95702571Y28966714D01*
X-95631143Y29109571D01*
X-97202571Y26702429D02*
X-97202571Y25702429D01*
X-97559714Y27273857D02*
X-97916857Y26202429D01*
X-96988285Y26202429D01*
X-96131143Y27202429D02*
X-95988286Y27202429D01*
X-95845429Y27131000D01*
X-95774000Y27059571D01*
X-95702571Y26916714D01*
X-95631143Y26631000D01*
X-95631143Y26273857D01*
X-95702571Y25988143D01*
X-95774000Y25845286D01*
X-95845429Y25773857D01*
X-95988286Y25702429D01*
X-96131143Y25702429D01*
X-96274000Y25773857D01*
X-96345429Y25845286D01*
X-96416857Y25988143D01*
X-96488286Y26273857D01*
X-96488286Y26631000D01*
X-96416857Y26916714D01*
X-96345429Y27059571D01*
X-96274000Y27131000D01*
X-96131143Y27202429D01*
X-76191999Y39967429D02*
X-75263428Y39967429D01*
X-75763428Y39396000D01*
X-75549142Y39396000D01*
X-75406285Y39324571D01*
X-75334856Y39253143D01*
X-75263428Y39110286D01*
X-75263428Y38753143D01*
X-75334856Y38610286D01*
X-75406285Y38538857D01*
X-75549142Y38467429D01*
X-75977714Y38467429D01*
X-76120571Y38538857D01*
X-76191999Y38610286D01*
X-75406285Y36917429D02*
X-75406285Y35917429D01*
X-75763428Y37488857D02*
X-76120571Y36417429D01*
X-75191999Y36417429D01*
X-75334856Y34867429D02*
X-76049142Y34867429D01*
X-76120571Y34153143D01*
X-76049142Y34224571D01*
X-75906285Y34296000D01*
X-75549142Y34296000D01*
X-75406285Y34224571D01*
X-75334856Y34153143D01*
X-75263428Y34010286D01*
X-75263428Y33653143D01*
X-75334856Y33510286D01*
X-75406285Y33438857D01*
X-75549142Y33367429D01*
X-75906285Y33367429D01*
X-76049142Y33438857D01*
X-76120571Y33510286D01*
X-75406285Y32317429D02*
X-75691999Y32317429D01*
X-75834856Y32246000D01*
X-75906285Y32174571D01*
X-76049142Y31960286D01*
X-76120571Y31674571D01*
X-76120571Y31103143D01*
X-76049142Y30960286D01*
X-75977714Y30888857D01*
X-75834856Y30817429D01*
X-75549142Y30817429D01*
X-75406285Y30888857D01*
X-75334856Y30960286D01*
X-75263428Y31103143D01*
X-75263428Y31460286D01*
X-75334856Y31603143D01*
X-75406285Y31674571D01*
X-75549142Y31746000D01*
X-75834856Y31746000D01*
X-75977714Y31674571D01*
X-76049142Y31603143D01*
X-76120571Y31460286D01*
X-76191999Y29767429D02*
X-75191999Y29767429D01*
X-75834856Y28267429D01*
X-75834856Y26574571D02*
X-75977714Y26646000D01*
X-76049142Y26717429D01*
X-76120571Y26860286D01*
X-76120571Y26931714D01*
X-76049142Y27074571D01*
X-75977714Y27146000D01*
X-75834856Y27217429D01*
X-75549142Y27217429D01*
X-75406285Y27146000D01*
X-75334856Y27074571D01*
X-75263428Y26931714D01*
X-75263428Y26860286D01*
X-75334856Y26717429D01*
X-75406285Y26646000D01*
X-75549142Y26574571D01*
X-75834856Y26574571D01*
X-75977714Y26503143D01*
X-76049142Y26431714D01*
X-76120571Y26288857D01*
X-76120571Y26003143D01*
X-76049142Y25860286D01*
X-75977714Y25788857D01*
X-75834856Y25717429D01*
X-75549142Y25717429D01*
X-75406285Y25788857D01*
X-75334856Y25860286D01*
X-75263428Y26003143D01*
X-75263428Y26288857D01*
X-75334856Y26431714D01*
X-75406285Y26503143D01*
X-75549142Y26574571D01*
X-75977714Y23167429D02*
X-75691999Y23167429D01*
X-75549142Y23238857D01*
X-75477714Y23310286D01*
X-75334856Y23524571D01*
X-75263428Y23810286D01*
X-75263428Y24381714D01*
X-75334856Y24524571D01*
X-75406285Y24596000D01*
X-75549142Y24667429D01*
X-75834856Y24667429D01*
X-75977714Y24596000D01*
X-76049142Y24524571D01*
X-76120571Y24381714D01*
X-76120571Y24024571D01*
X-76049142Y23881714D01*
X-75977714Y23810286D01*
X-75834856Y23738857D01*
X-75549142Y23738857D01*
X-75406285Y23810286D01*
X-75334856Y23881714D01*
X-75263428Y24024571D01*
X-76120571Y42334571D02*
X-76049142Y42406000D01*
X-75906285Y42477429D01*
X-75549142Y42477429D01*
X-75406285Y42406000D01*
X-75334856Y42334571D01*
X-75263428Y42191714D01*
X-75263428Y42048857D01*
X-75334856Y41834571D01*
X-76191999Y40977429D01*
X-75263428Y40977429D01*
X-75009428Y43771429D02*
X-75866571Y43771429D01*
X-75437999Y43771429D02*
X-75437999Y45271429D01*
X-75580856Y45057143D01*
X-75723714Y44914286D01*
X-75866571Y44842857D01*
D13*
X-105906000Y22910000D02*
X-105906000Y-15250000D01*
X-105906000Y-15250000D02*
X-111106000Y-15250000D01*
X-111106000Y-15250000D02*
X-111106000Y25510000D01*
X-111106000Y25510000D02*
X-108506000Y25510000D01*
X-108506000Y25510000D02*
X-108506000Y22910000D01*
X-108506000Y22910000D02*
X-105906000Y22910000D01*
X-105906000Y24180000D02*
X-105906000Y25510000D01*
X-105906000Y25510000D02*
X-107176000Y25510000D01*
X-61106000Y22910000D02*
X-61106000Y-15250000D01*
X-61106000Y-15250000D02*
X-66306000Y-15250000D01*
X-66306000Y-15250000D02*
X-66306000Y25510000D01*
X-66306000Y25510000D02*
X-63706000Y25510000D01*
X-63706000Y25510000D02*
X-63706000Y22910000D01*
X-63706000Y22910000D02*
X-61106000Y22910000D01*
X-61106000Y24180000D02*
X-61106000Y25510000D01*
X-61106000Y25510000D02*
X-62376000Y25510000D01*
X-95056000Y-35620000D02*
X-92396000Y-35620000D01*
X-95056000Y43180000D02*
X-95056000Y-35620000D01*
X-92396000Y43180000D02*
X-92396000Y-35620000D01*
X-95056000Y43180000D02*
X-92396000Y43180000D01*
X-95056000Y44450000D02*
X-95056000Y45780000D01*
X-95056000Y45780000D02*
X-93726000Y45780000D01*
X-79816000Y-35620000D02*
X-77156000Y-35620000D01*
X-79816000Y43180000D02*
X-79816000Y-35620000D01*
X-77156000Y43180000D02*
X-77156000Y-35620000D01*
X-79816000Y43180000D02*
X-77156000Y43180000D01*
X-79816000Y44450000D02*
X-79816000Y45780000D01*
X-79816000Y45780000D02*
X-78486000Y45780000D01*
D14*
X-109244095Y26057619D02*
X-109244095Y27057619D01*
X-108863142Y27057619D01*
X-108767904Y27010000D01*
X-108720285Y26962381D01*
X-108672666Y26867143D01*
X-108672666Y26724286D01*
X-108720285Y26629048D01*
X-108767904Y26581429D01*
X-108863142Y26533810D01*
X-109244095Y26533810D01*
X-108291714Y26962381D02*
X-108244095Y27010000D01*
X-108148857Y27057619D01*
X-107910761Y27057619D01*
X-107815523Y27010000D01*
X-107767904Y26962381D01*
X-107720285Y26867143D01*
X-107720285Y26771905D01*
X-107767904Y26629048D01*
X-108339333Y26057619D01*
X-107720285Y26057619D01*
X-64444095Y26057619D02*
X-64444095Y27057619D01*
X-64063142Y27057619D01*
X-63967904Y27010000D01*
X-63920285Y26962381D01*
X-63872666Y26867143D01*
X-63872666Y26724286D01*
X-63920285Y26629048D01*
X-63967904Y26581429D01*
X-64063142Y26533810D01*
X-64444095Y26533810D01*
X-62920285Y26057619D02*
X-63491714Y26057619D01*
X-63206000Y26057619D02*
X-63206000Y27057619D01*
X-63301238Y26914762D01*
X-63396476Y26819524D01*
X-63491714Y26771905D01*
X-94464095Y46327619D02*
X-94464095Y47327619D01*
X-94083142Y47327619D01*
X-93987904Y47280000D01*
X-93940285Y47232381D01*
X-93892666Y47137143D01*
X-93892666Y46994286D01*
X-93940285Y46899048D01*
X-93987904Y46851429D01*
X-94083142Y46803810D01*
X-94464095Y46803810D01*
X-93559333Y47327619D02*
X-92940285Y47327619D01*
X-93273619Y46946667D01*
X-93130761Y46946667D01*
X-93035523Y46899048D01*
X-92987904Y46851429D01*
X-92940285Y46756190D01*
X-92940285Y46518095D01*
X-92987904Y46422857D01*
X-93035523Y46375238D01*
X-93130761Y46327619D01*
X-93416476Y46327619D01*
X-93511714Y46375238D01*
X-93559333Y46422857D01*
X-79224095Y46327619D02*
X-79224095Y47327619D01*
X-78843142Y47327619D01*
X-78747904Y47280000D01*
X-78700285Y47232381D01*
X-78652666Y47137143D01*
X-78652666Y46994286D01*
X-78700285Y46899048D01*
X-78747904Y46851429D01*
X-78843142Y46803810D01*
X-79224095Y46803810D01*
X-77795523Y46994286D02*
X-77795523Y46327619D01*
X-78033619Y47375238D02*
X-78271714Y46660952D01*
X-77652666Y46660952D01*
M02*
