G04 #@! TF.FileFunction,Other,Fab,Top*
%FSLAX46Y46*%
G04 Gerber Fmt 4.6, Leading zero omitted, Abs format (unit mm)*
G04 Created by KiCad (PCBNEW 4.0.7) date 10/03/17 18:02:40*
%MOMM*%
%LPD*%
G01*
G04 APERTURE LIST*
%ADD10C,0.100000*%
%ADD11C,0.150000*%
G04 APERTURE END LIST*
D10*
X-111046000Y25450000D02*
X-111046000Y-15190000D01*
X-111046000Y-15190000D02*
X-105966000Y-15190000D01*
X-105966000Y-15190000D02*
X-105966000Y25450000D01*
X-105966000Y25450000D02*
X-111046000Y25450000D01*
X-66246000Y25450000D02*
X-66246000Y-15190000D01*
X-66246000Y-15190000D02*
X-61166000Y-15190000D01*
X-61166000Y-15190000D02*
X-61166000Y25450000D01*
X-61166000Y25450000D02*
X-66246000Y25450000D01*
X-94361000Y45720000D02*
X-92456000Y45720000D01*
X-92456000Y45720000D02*
X-92456000Y-35560000D01*
X-92456000Y-35560000D02*
X-94996000Y-35560000D01*
X-94996000Y-35560000D02*
X-94996000Y45085000D01*
X-94996000Y45085000D02*
X-94361000Y45720000D01*
X-79121000Y45720000D02*
X-77216000Y45720000D01*
X-77216000Y45720000D02*
X-77216000Y-35560000D01*
X-77216000Y-35560000D02*
X-79756000Y-35560000D01*
X-79756000Y-35560000D02*
X-79756000Y45085000D01*
X-79756000Y45085000D02*
X-79121000Y45720000D01*
D11*
X-112529809Y-16607143D02*
X-112577428Y-16654762D01*
X-112720285Y-16702381D01*
X-112815523Y-16702381D01*
X-112958381Y-16654762D01*
X-113053619Y-16559524D01*
X-113101238Y-16464286D01*
X-113148857Y-16273810D01*
X-113148857Y-16130952D01*
X-113101238Y-15940476D01*
X-113053619Y-15845238D01*
X-112958381Y-15750000D01*
X-112815523Y-15702381D01*
X-112720285Y-15702381D01*
X-112577428Y-15750000D01*
X-112529809Y-15797619D01*
X-111910762Y-15702381D02*
X-111720285Y-15702381D01*
X-111625047Y-15750000D01*
X-111529809Y-15845238D01*
X-111482190Y-16035714D01*
X-111482190Y-16369048D01*
X-111529809Y-16559524D01*
X-111625047Y-16654762D01*
X-111720285Y-16702381D01*
X-111910762Y-16702381D01*
X-112006000Y-16654762D01*
X-112101238Y-16559524D01*
X-112148857Y-16369048D01*
X-112148857Y-16035714D01*
X-112101238Y-15845238D01*
X-112006000Y-15750000D01*
X-111910762Y-15702381D01*
X-111053619Y-16702381D02*
X-111053619Y-15702381D01*
X-110482190Y-16702381D01*
X-110482190Y-15702381D01*
X-110006000Y-16702381D02*
X-110006000Y-15702381D01*
X-109434571Y-16702381D01*
X-109434571Y-15702381D01*
X-109196476Y-16797619D02*
X-108434571Y-16797619D01*
X-108006000Y-15702381D02*
X-107910761Y-15702381D01*
X-107815523Y-15750000D01*
X-107767904Y-15797619D01*
X-107720285Y-15892857D01*
X-107672666Y-16083333D01*
X-107672666Y-16321429D01*
X-107720285Y-16511905D01*
X-107767904Y-16607143D01*
X-107815523Y-16654762D01*
X-107910761Y-16702381D01*
X-108006000Y-16702381D01*
X-108101238Y-16654762D01*
X-108148857Y-16607143D01*
X-108196476Y-16511905D01*
X-108244095Y-16321429D01*
X-108244095Y-16083333D01*
X-108196476Y-15892857D01*
X-108148857Y-15797619D01*
X-108101238Y-15750000D01*
X-108006000Y-15702381D01*
X-107291714Y-15797619D02*
X-107244095Y-15750000D01*
X-107148857Y-15702381D01*
X-106910761Y-15702381D01*
X-106815523Y-15750000D01*
X-106767904Y-15797619D01*
X-106720285Y-15892857D01*
X-106720285Y-15988095D01*
X-106767904Y-16130952D01*
X-107339333Y-16702381D01*
X-106720285Y-16702381D01*
X-106386952Y-15702381D02*
X-105720285Y-16702381D01*
X-105720285Y-15702381D02*
X-106386952Y-16702381D01*
X-104815523Y-16702381D02*
X-105386952Y-16702381D01*
X-105101238Y-16702381D02*
X-105101238Y-15702381D01*
X-105196476Y-15845238D01*
X-105291714Y-15940476D01*
X-105386952Y-15988095D01*
X-103958380Y-15702381D02*
X-104148857Y-15702381D01*
X-104244095Y-15750000D01*
X-104291714Y-15797619D01*
X-104386952Y-15940476D01*
X-104434571Y-16130952D01*
X-104434571Y-16511905D01*
X-104386952Y-16607143D01*
X-104339333Y-16654762D01*
X-104244095Y-16702381D01*
X-104053618Y-16702381D01*
X-103958380Y-16654762D01*
X-103910761Y-16607143D01*
X-103863142Y-16511905D01*
X-103863142Y-16273810D01*
X-103910761Y-16178571D01*
X-103958380Y-16130952D01*
X-104053618Y-16083333D01*
X-104244095Y-16083333D01*
X-104339333Y-16130952D01*
X-104386952Y-16178571D01*
X-104434571Y-16273810D01*
X-109244095Y26057619D02*
X-109244095Y27057619D01*
X-108863142Y27057619D01*
X-108767904Y27010000D01*
X-108720285Y26962381D01*
X-108672666Y26867143D01*
X-108672666Y26724286D01*
X-108720285Y26629048D01*
X-108767904Y26581429D01*
X-108863142Y26533810D01*
X-109244095Y26533810D01*
X-108291714Y26962381D02*
X-108244095Y27010000D01*
X-108148857Y27057619D01*
X-107910761Y27057619D01*
X-107815523Y27010000D01*
X-107767904Y26962381D01*
X-107720285Y26867143D01*
X-107720285Y26771905D01*
X-107767904Y26629048D01*
X-108339333Y26057619D01*
X-107720285Y26057619D01*
X-67729809Y-16607143D02*
X-67777428Y-16654762D01*
X-67920285Y-16702381D01*
X-68015523Y-16702381D01*
X-68158381Y-16654762D01*
X-68253619Y-16559524D01*
X-68301238Y-16464286D01*
X-68348857Y-16273810D01*
X-68348857Y-16130952D01*
X-68301238Y-15940476D01*
X-68253619Y-15845238D01*
X-68158381Y-15750000D01*
X-68015523Y-15702381D01*
X-67920285Y-15702381D01*
X-67777428Y-15750000D01*
X-67729809Y-15797619D01*
X-67110762Y-15702381D02*
X-66920285Y-15702381D01*
X-66825047Y-15750000D01*
X-66729809Y-15845238D01*
X-66682190Y-16035714D01*
X-66682190Y-16369048D01*
X-66729809Y-16559524D01*
X-66825047Y-16654762D01*
X-66920285Y-16702381D01*
X-67110762Y-16702381D01*
X-67206000Y-16654762D01*
X-67301238Y-16559524D01*
X-67348857Y-16369048D01*
X-67348857Y-16035714D01*
X-67301238Y-15845238D01*
X-67206000Y-15750000D01*
X-67110762Y-15702381D01*
X-66253619Y-16702381D02*
X-66253619Y-15702381D01*
X-65682190Y-16702381D01*
X-65682190Y-15702381D01*
X-65206000Y-16702381D02*
X-65206000Y-15702381D01*
X-64634571Y-16702381D01*
X-64634571Y-15702381D01*
X-64396476Y-16797619D02*
X-63634571Y-16797619D01*
X-63206000Y-15702381D02*
X-63110761Y-15702381D01*
X-63015523Y-15750000D01*
X-62967904Y-15797619D01*
X-62920285Y-15892857D01*
X-62872666Y-16083333D01*
X-62872666Y-16321429D01*
X-62920285Y-16511905D01*
X-62967904Y-16607143D01*
X-63015523Y-16654762D01*
X-63110761Y-16702381D01*
X-63206000Y-16702381D01*
X-63301238Y-16654762D01*
X-63348857Y-16607143D01*
X-63396476Y-16511905D01*
X-63444095Y-16321429D01*
X-63444095Y-16083333D01*
X-63396476Y-15892857D01*
X-63348857Y-15797619D01*
X-63301238Y-15750000D01*
X-63206000Y-15702381D01*
X-62491714Y-15797619D02*
X-62444095Y-15750000D01*
X-62348857Y-15702381D01*
X-62110761Y-15702381D01*
X-62015523Y-15750000D01*
X-61967904Y-15797619D01*
X-61920285Y-15892857D01*
X-61920285Y-15988095D01*
X-61967904Y-16130952D01*
X-62539333Y-16702381D01*
X-61920285Y-16702381D01*
X-61586952Y-15702381D02*
X-60920285Y-16702381D01*
X-60920285Y-15702381D02*
X-61586952Y-16702381D01*
X-60015523Y-16702381D02*
X-60586952Y-16702381D01*
X-60301238Y-16702381D02*
X-60301238Y-15702381D01*
X-60396476Y-15845238D01*
X-60491714Y-15940476D01*
X-60586952Y-15988095D01*
X-59158380Y-15702381D02*
X-59348857Y-15702381D01*
X-59444095Y-15750000D01*
X-59491714Y-15797619D01*
X-59586952Y-15940476D01*
X-59634571Y-16130952D01*
X-59634571Y-16511905D01*
X-59586952Y-16607143D01*
X-59539333Y-16654762D01*
X-59444095Y-16702381D01*
X-59253618Y-16702381D01*
X-59158380Y-16654762D01*
X-59110761Y-16607143D01*
X-59063142Y-16511905D01*
X-59063142Y-16273810D01*
X-59110761Y-16178571D01*
X-59158380Y-16130952D01*
X-59253618Y-16083333D01*
X-59444095Y-16083333D01*
X-59539333Y-16130952D01*
X-59586952Y-16178571D01*
X-59634571Y-16273810D01*
X-64444095Y26057619D02*
X-64444095Y27057619D01*
X-64063142Y27057619D01*
X-63967904Y27010000D01*
X-63920285Y26962381D01*
X-63872666Y26867143D01*
X-63872666Y26724286D01*
X-63920285Y26629048D01*
X-63967904Y26581429D01*
X-64063142Y26533810D01*
X-64444095Y26533810D01*
X-62920285Y26057619D02*
X-63491714Y26057619D01*
X-63206000Y26057619D02*
X-63206000Y27057619D01*
X-63301238Y26914762D01*
X-63396476Y26819524D01*
X-63491714Y26771905D01*
X-97749809Y-36977143D02*
X-97797428Y-37024762D01*
X-97940285Y-37072381D01*
X-98035523Y-37072381D01*
X-98178381Y-37024762D01*
X-98273619Y-36929524D01*
X-98321238Y-36834286D01*
X-98368857Y-36643810D01*
X-98368857Y-36500952D01*
X-98321238Y-36310476D01*
X-98273619Y-36215238D01*
X-98178381Y-36120000D01*
X-98035523Y-36072381D01*
X-97940285Y-36072381D01*
X-97797428Y-36120000D01*
X-97749809Y-36167619D01*
X-97130762Y-36072381D02*
X-96940285Y-36072381D01*
X-96845047Y-36120000D01*
X-96749809Y-36215238D01*
X-96702190Y-36405714D01*
X-96702190Y-36739048D01*
X-96749809Y-36929524D01*
X-96845047Y-37024762D01*
X-96940285Y-37072381D01*
X-97130762Y-37072381D01*
X-97226000Y-37024762D01*
X-97321238Y-36929524D01*
X-97368857Y-36739048D01*
X-97368857Y-36405714D01*
X-97321238Y-36215238D01*
X-97226000Y-36120000D01*
X-97130762Y-36072381D01*
X-96273619Y-37072381D02*
X-96273619Y-36072381D01*
X-95702190Y-37072381D01*
X-95702190Y-36072381D01*
X-95226000Y-37072381D02*
X-95226000Y-36072381D01*
X-94654571Y-37072381D01*
X-94654571Y-36072381D01*
X-94416476Y-37167619D02*
X-93654571Y-37167619D01*
X-93226000Y-36072381D02*
X-93130761Y-36072381D01*
X-93035523Y-36120000D01*
X-92987904Y-36167619D01*
X-92940285Y-36262857D01*
X-92892666Y-36453333D01*
X-92892666Y-36691429D01*
X-92940285Y-36881905D01*
X-92987904Y-36977143D01*
X-93035523Y-37024762D01*
X-93130761Y-37072381D01*
X-93226000Y-37072381D01*
X-93321238Y-37024762D01*
X-93368857Y-36977143D01*
X-93416476Y-36881905D01*
X-93464095Y-36691429D01*
X-93464095Y-36453333D01*
X-93416476Y-36262857D01*
X-93368857Y-36167619D01*
X-93321238Y-36120000D01*
X-93226000Y-36072381D01*
X-91940285Y-37072381D02*
X-92511714Y-37072381D01*
X-92226000Y-37072381D02*
X-92226000Y-36072381D01*
X-92321238Y-36215238D01*
X-92416476Y-36310476D01*
X-92511714Y-36358095D01*
X-91606952Y-36072381D02*
X-90940285Y-37072381D01*
X-90940285Y-36072381D02*
X-91606952Y-37072381D01*
X-90654571Y-36072381D02*
X-90035523Y-36072381D01*
X-90368857Y-36453333D01*
X-90225999Y-36453333D01*
X-90130761Y-36500952D01*
X-90083142Y-36548571D01*
X-90035523Y-36643810D01*
X-90035523Y-36881905D01*
X-90083142Y-36977143D01*
X-90130761Y-37024762D01*
X-90225999Y-37072381D01*
X-90511714Y-37072381D01*
X-90606952Y-37024762D01*
X-90654571Y-36977143D01*
X-89654571Y-36167619D02*
X-89606952Y-36120000D01*
X-89511714Y-36072381D01*
X-89273618Y-36072381D01*
X-89178380Y-36120000D01*
X-89130761Y-36167619D01*
X-89083142Y-36262857D01*
X-89083142Y-36358095D01*
X-89130761Y-36500952D01*
X-89702190Y-37072381D01*
X-89083142Y-37072381D01*
X-93273619Y4341905D02*
X-94273619Y4341905D01*
X-94273619Y4722858D01*
X-94226000Y4818096D01*
X-94178381Y4865715D01*
X-94083143Y4913334D01*
X-93940286Y4913334D01*
X-93845048Y4865715D01*
X-93797429Y4818096D01*
X-93749810Y4722858D01*
X-93749810Y4341905D01*
X-94273619Y5246667D02*
X-94273619Y5865715D01*
X-93892667Y5532381D01*
X-93892667Y5675239D01*
X-93845048Y5770477D01*
X-93797429Y5818096D01*
X-93702190Y5865715D01*
X-93464095Y5865715D01*
X-93368857Y5818096D01*
X-93321238Y5770477D01*
X-93273619Y5675239D01*
X-93273619Y5389524D01*
X-93321238Y5294286D01*
X-93368857Y5246667D01*
X-82509809Y-36977143D02*
X-82557428Y-37024762D01*
X-82700285Y-37072381D01*
X-82795523Y-37072381D01*
X-82938381Y-37024762D01*
X-83033619Y-36929524D01*
X-83081238Y-36834286D01*
X-83128857Y-36643810D01*
X-83128857Y-36500952D01*
X-83081238Y-36310476D01*
X-83033619Y-36215238D01*
X-82938381Y-36120000D01*
X-82795523Y-36072381D01*
X-82700285Y-36072381D01*
X-82557428Y-36120000D01*
X-82509809Y-36167619D01*
X-81890762Y-36072381D02*
X-81700285Y-36072381D01*
X-81605047Y-36120000D01*
X-81509809Y-36215238D01*
X-81462190Y-36405714D01*
X-81462190Y-36739048D01*
X-81509809Y-36929524D01*
X-81605047Y-37024762D01*
X-81700285Y-37072381D01*
X-81890762Y-37072381D01*
X-81986000Y-37024762D01*
X-82081238Y-36929524D01*
X-82128857Y-36739048D01*
X-82128857Y-36405714D01*
X-82081238Y-36215238D01*
X-81986000Y-36120000D01*
X-81890762Y-36072381D01*
X-81033619Y-37072381D02*
X-81033619Y-36072381D01*
X-80462190Y-37072381D01*
X-80462190Y-36072381D01*
X-79986000Y-37072381D02*
X-79986000Y-36072381D01*
X-79414571Y-37072381D01*
X-79414571Y-36072381D01*
X-79176476Y-37167619D02*
X-78414571Y-37167619D01*
X-77986000Y-36072381D02*
X-77890761Y-36072381D01*
X-77795523Y-36120000D01*
X-77747904Y-36167619D01*
X-77700285Y-36262857D01*
X-77652666Y-36453333D01*
X-77652666Y-36691429D01*
X-77700285Y-36881905D01*
X-77747904Y-36977143D01*
X-77795523Y-37024762D01*
X-77890761Y-37072381D01*
X-77986000Y-37072381D01*
X-78081238Y-37024762D01*
X-78128857Y-36977143D01*
X-78176476Y-36881905D01*
X-78224095Y-36691429D01*
X-78224095Y-36453333D01*
X-78176476Y-36262857D01*
X-78128857Y-36167619D01*
X-78081238Y-36120000D01*
X-77986000Y-36072381D01*
X-76700285Y-37072381D02*
X-77271714Y-37072381D01*
X-76986000Y-37072381D02*
X-76986000Y-36072381D01*
X-77081238Y-36215238D01*
X-77176476Y-36310476D01*
X-77271714Y-36358095D01*
X-76366952Y-36072381D02*
X-75700285Y-37072381D01*
X-75700285Y-36072381D02*
X-76366952Y-37072381D01*
X-75414571Y-36072381D02*
X-74795523Y-36072381D01*
X-75128857Y-36453333D01*
X-74985999Y-36453333D01*
X-74890761Y-36500952D01*
X-74843142Y-36548571D01*
X-74795523Y-36643810D01*
X-74795523Y-36881905D01*
X-74843142Y-36977143D01*
X-74890761Y-37024762D01*
X-74985999Y-37072381D01*
X-75271714Y-37072381D01*
X-75366952Y-37024762D01*
X-75414571Y-36977143D01*
X-74414571Y-36167619D02*
X-74366952Y-36120000D01*
X-74271714Y-36072381D01*
X-74033618Y-36072381D01*
X-73938380Y-36120000D01*
X-73890761Y-36167619D01*
X-73843142Y-36262857D01*
X-73843142Y-36358095D01*
X-73890761Y-36500952D01*
X-74462190Y-37072381D01*
X-73843142Y-37072381D01*
X-78033619Y4341905D02*
X-79033619Y4341905D01*
X-79033619Y4722858D01*
X-78986000Y4818096D01*
X-78938381Y4865715D01*
X-78843143Y4913334D01*
X-78700286Y4913334D01*
X-78605048Y4865715D01*
X-78557429Y4818096D01*
X-78509810Y4722858D01*
X-78509810Y4341905D01*
X-78700286Y5770477D02*
X-78033619Y5770477D01*
X-79081238Y5532381D02*
X-78366952Y5294286D01*
X-78366952Y5913334D01*
M02*
