M48
;DRILL file {KiCad 4.0.7} date 10/03/17 18:23:15
;FORMAT={-:-/ absolute / metric / decimal}
FMAT,2
METRIC,TZ
T1C1.000
%
G90
G05
M71
T1
X-109.776Y24.18
X-109.776Y21.64
X-109.776Y19.1
X-109.776Y16.56
X-109.776Y14.02
X-109.776Y11.48
X-109.776Y8.94
X-109.776Y6.4
X-109.776Y3.86
X-109.776Y1.32
X-109.776Y-1.22
X-109.776Y-3.76
X-109.776Y-6.3
X-109.776Y-8.84
X-109.776Y-11.38
X-109.776Y-13.92
X-107.236Y24.18
X-107.236Y21.64
X-107.236Y19.1
X-107.236Y16.56
X-107.236Y14.02
X-107.236Y11.48
X-107.236Y8.94
X-107.236Y6.4
X-107.236Y3.86
X-107.236Y1.32
X-107.236Y-1.22
X-107.236Y-3.76
X-107.236Y-6.3
X-107.236Y-8.84
X-107.236Y-11.38
X-107.236Y-13.92
X-93.726Y44.45
X-93.726Y41.91
X-93.726Y39.37
X-93.726Y36.83
X-93.726Y34.29
X-93.726Y31.75
X-93.726Y29.21
X-93.726Y26.67
X-93.726Y24.13
X-93.726Y21.59
X-93.726Y19.05
X-93.726Y16.51
X-93.726Y13.97
X-93.726Y11.43
X-93.726Y8.89
X-93.726Y6.35
X-93.726Y3.81
X-93.726Y1.27
X-93.726Y-1.27
X-93.726Y-3.81
X-93.726Y-6.35
X-93.726Y-8.89
X-93.726Y-11.43
X-93.726Y-13.97
X-93.726Y-16.51
X-93.726Y-19.05
X-93.726Y-21.59
X-93.726Y-24.13
X-93.726Y-26.67
X-93.726Y-29.21
X-93.726Y-31.75
X-93.726Y-34.29
X-78.486Y44.45
X-78.486Y41.91
X-78.486Y39.37
X-78.486Y36.83
X-78.486Y34.29
X-78.486Y31.75
X-78.486Y29.21
X-78.486Y26.67
X-78.486Y24.13
X-78.486Y21.59
X-78.486Y19.05
X-78.486Y16.51
X-78.486Y13.97
X-78.486Y11.43
X-78.486Y8.89
X-78.486Y6.35
X-78.486Y3.81
X-78.486Y1.27
X-78.486Y-1.27
X-78.486Y-3.81
X-78.486Y-6.35
X-78.486Y-8.89
X-78.486Y-11.43
X-78.486Y-13.97
X-78.486Y-16.51
X-78.486Y-19.05
X-78.486Y-21.59
X-78.486Y-24.13
X-78.486Y-26.67
X-78.486Y-29.21
X-78.486Y-31.75
X-78.486Y-34.29
X-64.976Y24.18
X-64.976Y21.64
X-64.976Y19.1
X-64.976Y16.56
X-64.976Y14.02
X-64.976Y11.48
X-64.976Y8.94
X-64.976Y6.4
X-64.976Y3.86
X-64.976Y1.32
X-64.976Y-1.22
X-64.976Y-3.76
X-64.976Y-6.3
X-64.976Y-8.84
X-64.976Y-11.38
X-64.976Y-13.92
X-62.436Y24.18
X-62.436Y21.64
X-62.436Y19.1
X-62.436Y16.56
X-62.436Y14.02
X-62.436Y11.48
X-62.436Y8.94
X-62.436Y6.4
X-62.436Y3.86
X-62.436Y1.32
X-62.436Y-1.22
X-62.436Y-3.76
X-62.436Y-6.3
X-62.436Y-8.84
X-62.436Y-11.38
X-62.436Y-13.92
T0
M30
